<svg width="88" height="79" viewBox="0 0 88 79" fill="none" xmlns="http://www.w3.org/2000/svg">
<path d="M51.6908 77.1338C65.0267 77.1338 75.8377 66.3228 75.8377 52.9868C75.8377 39.6509 65.0267 28.8399 51.6908 28.8399C38.3548 28.8399 27.5438 39.6509 27.5438 52.9868C27.5438 66.3228 38.3548 77.1338 51.6908 77.1338Z" fill="#0B3866" fill-opacity="0.2"/>
<path d="M25.9837 30.0679C33.6541 30.0679 39.8721 23.8499 39.8721 16.1795C39.8721 8.50918 33.6541 2.29114 25.9837 2.29114C18.3134 2.29114 12.0953 8.50918 12.0953 16.1795C12.0953 23.8499 18.3134 30.0679 25.9837 30.0679Z" fill="#07F49E" fill-opacity="0.06"/>
<path fill-rule="evenodd" clip-rule="evenodd" d="M67.8367 78.2029H57.1442C56.7019 78.1836 56.6806 78.1671 56.3692 77.8818L46.836 68.3486C46.5369 68.0221 46.5334 67.9954 46.515 67.5736V61.0139C46.555 60.1473 47.6688 59.5835 48.3493 60.2038C48.5678 60.403 48.6861 60.5604 48.707 61.0139V67.1196L57.5982 76.0109H67.3829L70.8502 72.5434C69.0848 70.4706 70.3041 66.3344 73.6221 66.2717C73.6706 66.2713 73.6706 66.2713 73.7191 66.2717C76.204 66.3187 78.2408 69.2515 77.0701 71.6796C76.3384 73.1973 74.4782 73.9655 72.834 73.6597L68.6118 77.8818C68.2854 78.1808 68.2587 78.1844 67.8367 78.2029ZM33.8303 0.00027385C39.0432 0.0495939 43.8361 4.51169 43.8895 10.0595C43.9472 29.4208 43.9472 48.7821 43.8895 68.1434C43.8512 72.123 41.2664 75.9508 37.5914 77.4535C31.8486 79.8018 24.2685 75.8268 23.6753 68.9238C18.2523 69.9813 12.232 67.3877 9.27732 62.593C7.59852 59.8685 6.92599 56.5717 7.37192 53.3882C7.37192 53.3882 6.22071 52.5242 5.40502 51.7493C0.763866 47.3401 -1.14797 40.3028 0.693585 34.1196C1.80164 30.3995 4.19667 27.0905 7.3696 24.8411C7.3696 24.8411 7.24301 23.8176 7.23301 23.0174C7.15327 16.5602 12.1384 10.4009 18.6035 9.24462C20.2734 8.94596 21.9963 8.9598 23.6692 9.27805C23.6692 9.27805 23.754 8.47194 23.8999 7.8401C24.9012 3.50542 29.0046 0.103436 33.5695 0.00191904C33.6565 0.000549037 33.7433 -1.50526e-07 33.8303 0.00027385ZM25.8462 67.5825L25.8472 67.5905C25.869 67.7873 25.8223 68.5074 25.8962 69.089C26.3579 72.7176 29.6383 75.7883 33.3056 75.9977C37.5417 76.2397 41.6264 72.631 41.6971 68.1808C41.8839 48.8126 41.7554 29.4424 41.6976 10.0733C41.6582 5.9832 38.1617 2.23337 33.8165 2.19227C33.7822 2.19214 33.748 2.19214 33.7137 2.19227C29.5626 2.23159 25.8008 5.84976 25.8343 10.231C25.8919 10.6781 25.9269 11.1666 26.0404 11.6035C26.4103 13.0277 27.3534 14.2586 28.5206 15.1769C28.5206 15.1769 29.3591 16.391 28.4181 16.9712C28.04 17.2042 27.5308 17.1735 27.1653 16.8996C27.0965 16.8454 27.0965 16.8455 27.0281 16.7909C25.4009 15.4688 24.2394 13.636 23.8184 11.5906C23.4892 11.5042 23.1298 11.4017 22.7809 11.3494C18.0666 10.6431 13.047 13.1613 10.7936 17.3682C9.59256 19.6102 9.17485 22.2498 9.58242 24.7578C9.70969 25.5405 10.1066 26.4699 10.584 27.3432C11.6185 29.2354 13.3429 30.8099 15.5733 31.2104C15.5733 31.2104 15.9126 31.2934 16.1146 31.476C16.8207 32.1143 16.2879 33.5832 15.0004 33.3331C11.8358 32.6949 9.32883 30.1986 8.03432 27.0822C5.54914 29.0383 3.66895 31.7659 2.77736 34.8029C1.07458 40.6034 3.19137 47.2736 8.02788 51.1131C9.29212 48.083 11.7151 45.5 15.1057 44.8664C15.1057 44.8664 15.1485 44.8268 15.4419 44.8416C16.5109 44.9501 16.8926 46.7407 15.3579 47.0503C12.4654 47.655 10.3825 50.4311 9.61023 53.2297C9.55982 53.6804 9.47501 54.1716 9.44652 54.6293C9.09593 60.2845 13.3679 65.8688 19.1326 66.8252C20.1779 66.9985 21.2473 67.0284 22.3007 66.9152C22.7846 66.8633 23.2647 66.78 23.7384 66.6676C24.0754 64.4478 25.2967 62.4067 27.0979 60.9779C27.3239 60.7986 27.5879 60.687 27.8832 60.691C28.8312 60.7481 29.2867 62.0229 28.3481 62.7855C26.9092 63.9735 25.9517 65.6681 25.8462 67.5825ZM73.6499 68.4636C72.5363 68.4847 71.6674 69.928 72.3703 70.9416C73.1393 72.0504 75.5382 71.5088 75.2261 69.7631C75.0966 69.039 74.4115 68.4585 73.6499 68.4636ZM55.9439 59.3877V55.59C55.952 55.2998 56.0638 55.0277 56.2649 54.8149L60.8693 50.2104C61.1033 49.9898 61.4084 49.8743 61.74 49.8936C62.2482 49.9529 62.3189 50.0947 62.4632 50.2568C62.8361 50.6759 62.861 51.2923 62.4193 51.7604L58.1359 56.044V59.4107C60.0997 60.1068 61.4401 62.55 60.4394 64.6255C59.4186 66.743 56.2008 67.4014 54.4373 65.7199C52.5897 63.9579 53.3258 60.2286 55.9439 59.3877ZM82.5082 43.2631C81.9545 43.1193 81.4343 42.8476 81.0018 42.4352C78.927 40.4572 80.1098 35.9985 83.5557 35.9329C83.6042 35.9326 83.6042 35.9326 83.6526 35.9329C86.1402 35.9803 88.1743 38.9128 87.0037 41.3409C86.5559 42.2697 85.6852 42.9179 84.7002 43.2108V55.2274C84.6809 55.6697 84.6645 55.6911 84.3791 56.0025L76.1054 64.2763C75.779 64.5752 75.7522 64.5788 75.3304 64.5973H65.6502C64.9923 64.5685 64.8381 64.2866 64.7011 64.0493C64.3213 63.3916 64.6974 62.4468 65.6502 62.4053H74.8764L82.5082 54.7734V43.2631ZM57.0192 61.4094C55.6702 61.4353 54.7742 63.7471 56.4259 64.4463C57.5583 64.9258 59.126 63.5954 58.4479 62.2714C58.1813 61.7511 57.6207 61.4057 57.0192 61.4094ZM27.878 47.8426C28.0478 47.8599 28.0754 47.873 28.1492 47.8984C28.5464 48.0339 28.8115 48.4098 28.8922 48.8416C28.9013 48.8891 28.9013 48.8891 28.9109 48.9365C29.1368 50.0184 29.6391 51.0321 30.3701 51.8716C31.6056 53.2904 33.3334 54.2143 35.147 54.6999C35.147 54.6999 35.9297 55.0203 35.9923 55.6621C36.0625 56.3818 35.3049 57.013 34.5431 56.8073C30.9861 55.847 27.6563 53.3081 26.8039 49.5633C26.6304 48.8011 26.9029 47.9045 27.7115 47.8427C27.8188 47.8345 27.8438 47.841 27.878 47.8426ZM65.6246 40.0378C65.5723 40.2196 65.5036 40.4001 65.418 40.5778C64.3971 42.6952 61.1798 43.3534 59.4162 41.6721C57.3408 39.6938 58.5238 35.2354 61.97 35.1698C62.0185 35.1695 62.0183 35.1695 62.067 35.1698C63.6329 35.1996 65.0202 36.3738 65.5399 37.8458H67.6074C67.6312 37.8467 67.6552 37.8475 67.6791 37.8482C68.0731 37.8869 68.1669 37.9652 68.3824 38.1668L71.9267 41.7113C72.124 41.9219 72.2383 42.1949 72.2477 42.4863V52.5429C72.2254 53.183 72.0428 53.2377 71.8266 53.4066C71.1837 53.9088 70.0892 53.4993 70.0557 52.5429V42.9402L67.1534 40.0378H65.6246ZM47.7184 22.604C48.2637 22.685 48.6795 23.1353 48.707 23.6948V50.7537C48.6643 51.6222 47.4866 52.1795 46.836 51.5287C46.6415 51.3342 46.5367 51.1951 46.515 50.7537V23.6948C46.5456 23.0731 47.0552 22.5716 47.7184 22.604ZM83.5835 38.1248C82.2344 38.1504 81.3388 40.4627 82.99 41.1615C84.1229 41.641 85.692 40.3142 85.012 38.9866C84.7456 38.4663 84.1852 38.1209 83.5835 38.1248ZM61.9978 37.3617C60.6448 37.3874 59.768 39.7059 61.4043 40.3984C62.5573 40.8864 64.1416 39.5001 63.3994 38.1733C63.1201 37.6738 62.6062 37.3579 61.9978 37.3617ZM25.9624 36.887C27.365 36.8962 28.7739 37.3392 29.8047 38.3112C30.4568 38.9262 30.0964 40.2684 29.0801 40.2498C28.4946 40.2391 28.1061 39.6599 27.5648 39.4057C26.2238 38.7758 24.6437 39.0893 23.3354 39.5997C23.3354 39.5997 22.7478 39.7569 22.3495 39.504C21.6712 39.0734 21.7324 37.8686 22.5888 37.5381C22.628 37.5229 22.6672 37.5081 22.7066 37.4936C23.7479 37.1089 24.8486 36.8845 25.9624 36.887ZM77.2253 11.9545C77.6362 12.0086 77.6514 12.0392 77.9047 12.2714L83.6511 18.0177C83.9501 18.344 83.9537 18.3707 83.9721 18.7926V28.9885C83.9527 29.4308 83.9363 29.4521 83.6511 29.7635L76.5446 36.8699C75.3869 37.979 73.7724 36.5656 74.9947 35.32L81.7801 28.5345V19.2466L76.6758 14.1424H74.9432C74.9432 14.1424 73.9619 13.9673 73.8571 13.1935C73.7739 12.5796 74.3011 11.9791 74.9432 11.9504H77.1297C77.1616 11.9517 77.1934 11.9531 77.2253 11.9545ZM54.3039 21.124C53.7503 20.9802 53.2302 20.7085 52.7976 20.2961C50.7222 18.3179 51.9051 13.8595 55.3514 13.7938C55.3999 13.7934 55.3999 13.7934 55.4485 13.7938C57.9347 13.8411 59.9703 16.7732 58.7995 19.2018C58.3515 20.1306 57.481 20.7787 56.4959 21.0716V24.4767L60.7795 28.7601C60.7795 28.7601 61.0436 29.0676 61.0889 29.3764C61.2177 30.2563 60.0534 31.0875 59.2294 30.3102L54.625 25.7056C54.4257 25.4949 54.312 25.2192 54.3039 24.9307V21.124ZM27.8549 21.6078C28.1173 21.6287 28.3716 21.7216 28.6272 21.8023C31.3393 22.6588 33.8643 24.3445 35.1799 26.932C35.5823 27.7233 35.9277 28.5804 35.9942 29.4516C36.0542 30.2356 35.0591 30.9513 34.2986 30.4504C33.8405 30.1486 33.8058 29.5024 33.6359 28.944C32.9709 26.7588 30.9921 25.1128 28.933 24.2478C28.4935 24.0631 28.0424 23.9047 27.5822 23.7795C27.5822 23.7795 26.8041 23.4881 26.7111 22.8638C26.6185 22.2429 27.1386 21.6202 27.7994 21.6061C27.8179 21.6067 27.8364 21.6072 27.8549 21.6078ZM57.1032 2.192L48.374 10.6576C47.0863 11.7188 45.6271 10.3117 46.8479 9.08406L55.8961 0.309345C56.2202 0.0206864 56.2454 0.01781 56.659 0H61.9745C62.0056 0.00137 62.0366 0.00274095 62.0677 0.00397395C62.4692 0.055486 62.4846 0.0858984 62.7338 0.305509L69.6324 6.93097C69.8338 7.14058 69.952 7.29347 69.9693 7.72146V12.5215C71.9321 13.2176 73.2733 15.6609 72.2728 17.7363C71.2519 19.8538 68.0344 20.5118 66.2708 18.8308C64.4249 17.0712 65.1595 13.3393 67.7773 12.4984V8.18835L61.5335 2.192H57.1032ZM55.3793 15.9857C54.0263 16.0115 53.1494 18.3298 54.7858 19.0225C55.9387 19.5104 57.523 18.1241 56.7808 16.7973C56.5015 16.2978 55.9857 15.9817 55.3793 15.9857ZM68.9053 14.5206C68.8771 14.5219 68.8489 14.522 68.8209 14.5212C67.484 14.5819 66.6353 16.8695 68.2593 17.557C69.4118 18.0451 70.9964 16.6587 70.2542 15.3318C69.983 14.8468 69.4906 14.5349 68.9053 14.5206Z" fill="white"/>
</svg>
