<svg width="85" height="78" viewBox="0 0 85 78" fill="none" xmlns="http://www.w3.org/2000/svg">
<path d="M28.4569 49.6296C41.7594 49.6296 52.5431 39.1167 52.5431 26.1484C52.5431 13.1801 41.7594 2.66724 28.4569 2.66724C15.1544 2.66724 4.37061 13.1801 4.37061 26.1484C4.37061 39.1167 15.1544 49.6296 28.4569 49.6296Z" fill="#07F49E" fill-opacity="0.06"/>
<path d="M66.3964 65.4881C74.0475 65.4881 80.2499 59.4415 80.2499 51.9827C80.2499 44.5238 74.0475 38.4772 66.3964 38.4772C58.7453 38.4772 52.5429 44.5238 52.5429 51.9827C52.5429 59.4415 58.7453 65.4881 66.3964 65.4881Z" fill="#0B3866" fill-opacity="0.2"/>
<path fill-rule="evenodd" clip-rule="evenodd" d="M58.2762 72.6766C58.2433 72.6581 58.2112 72.6377 58.18 72.6151C58.123 72.5738 58.1112 72.5605 58.0592 72.5134L53.5262 68.0943C53.2332 67.7874 53.2175 67.6536 53.206 67.3407V56.9428C53.2258 56.4144 53.6396 55.9413 54.1797 55.8834C54.3326 55.867 54.3695 55.8799 54.4188 55.8834C54.9012 55.9526 55.3104 56.3207 55.3809 56.7877C55.3913 56.8562 55.3899 56.8737 55.3925 56.9428V66.8992L59.6054 71.0062C59.6054 71.0062 59.6798 71.0969 59.7558 71.241C60.2275 70.9864 60.7635 70.8319 61.342 70.816C61.3815 70.8151 61.421 70.8147 61.4604 70.8148C63.1409 70.83 64.7175 72.0675 65.0594 73.6943C65.4019 75.3242 64.4192 77.126 62.8345 77.7576C60.9522 78.5078 58.5049 77.4549 57.8922 75.4486C57.6088 74.5201 57.7829 73.5135 58.2762 72.6766ZM25.1988 71.225C25.2454 71.1467 25.3016 71.0732 25.3654 71.0062L29.5782 66.8992V56.9428C29.5782 56.9428 29.6263 56.4446 29.9126 56.1755C30.0852 56.0134 30.3134 55.9089 30.5519 55.8834C30.7047 55.867 30.7417 55.8799 30.791 55.8834C31.0338 55.9183 31.0713 55.9449 31.1714 55.995C31.5263 56.1729 31.75 56.5499 31.7647 56.9428V67.3407C31.7493 67.7598 31.6633 67.8652 31.4444 68.0943L26.9115 72.5134C26.8432 72.5753 26.79 72.6186 26.7436 72.6508C26.9293 72.9592 27.0677 73.2955 27.1471 73.6506C27.514 75.2941 26.529 77.1207 24.9319 77.7575C23.0473 78.5089 20.5979 77.4415 19.9894 75.4486C19.3524 73.3622 21.0258 70.8825 23.4391 70.816C23.4786 70.8151 23.5181 70.8147 23.5577 70.8148C24.1319 70.82 24.694 70.9679 25.1988 71.225ZM23.524 72.9464C22.954 72.9516 22.4046 73.2955 22.1631 73.7986C21.742 74.6766 22.4708 75.8865 23.524 75.8929C24.6538 75.8998 25.5293 74.3924 24.6648 73.4431C24.3865 73.1375 23.9762 72.9531 23.5538 72.9465C23.5439 72.9464 23.5339 72.9464 23.524 72.9464ZM61.4268 72.9464C60.3922 72.9557 59.5686 74.209 60.125 75.1515C60.6978 76.1214 62.5448 76.0705 62.8958 74.8059C63.1348 73.9444 62.425 72.9431 61.4268 72.9464ZM41.3921 68.4493V61.6218C41.397 61.4403 41.4132 61.3899 41.4456 61.2925C41.5751 60.904 41.9512 60.6049 42.3711 60.5619C42.4814 60.5506 42.5074 60.5567 42.5426 60.5575C42.753 60.5736 42.8151 60.5984 42.9301 60.6482C43.2785 60.7994 43.5326 61.1386 43.5726 61.5104C43.5779 61.5598 43.5773 61.5722 43.5786 61.6218V68.4497C44.789 68.8364 45.7953 69.831 46.0883 71.0676C46.4794 72.7175 45.4999 74.5739 43.8834 75.2184C41.9987 75.9699 39.5493 74.9024 38.9408 72.9095C38.3955 71.1235 39.5404 69.0536 41.3921 68.4493ZM42.4754 70.4073C41.9053 70.4125 41.3556 70.7574 41.1146 71.2595C40.695 72.1339 41.418 73.3345 42.4556 73.3537C43.1162 73.3658 43.7561 72.9114 43.9395 72.2836C44.187 71.4361 43.5031 70.4472 42.5441 70.4084C42.5213 70.4076 42.4984 70.4073 42.4754 70.4073ZM73.33 69.2601H69.8405C69.4105 69.2451 69.3025 69.1613 69.0674 68.9479L62.0589 62.1155C61.7657 61.8086 61.7502 61.6748 61.7387 61.3619V52.0038C61.7595 51.4767 62.1731 51.0051 62.7066 50.9451C62.8665 50.9271 62.9055 50.9412 62.9574 50.9451C63.4902 51.0253 63.9043 51.4706 63.9252 52.0038V60.9204L70.2932 67.1286H73.3753C73.8413 65.7653 75.1053 64.6372 76.7678 64.5905C76.8076 64.5897 76.8472 64.5893 76.887 64.5895C78.5525 64.6052 80.1179 65.8214 80.4761 67.4253C80.8429 69.0682 79.8582 70.8955 78.2608 71.5321C76.3913 72.2772 73.9651 71.2486 73.3317 69.266L73.33 69.2601ZM11.64 67.1286H14.6775L21.0456 60.9204V52.0038C21.0554 51.7532 21.0807 51.712 21.1248 51.6054C21.3011 51.1787 21.7671 50.9079 22.2641 50.9451C22.7971 51.0253 23.211 51.4706 23.2321 52.0038V61.3619C23.2166 61.781 23.1307 61.8864 22.9119 62.1155L15.9034 68.9479C15.7301 69.1052 15.5168 69.2168 15.2859 69.2492C15.2172 69.2588 15.1996 69.2576 15.1303 69.2601H11.6077C11.2724 70.2592 10.5126 71.131 9.5054 71.5322C7.63608 72.277 5.20976 71.2478 4.57663 69.266C3.90893 67.1756 5.54293 64.6597 8.01271 64.5905C8.05247 64.5897 8.0921 64.5893 8.13173 64.5895C9.69262 64.6043 11.167 65.6688 11.64 67.1286ZM76.8532 66.721C76.2817 66.7264 75.7327 67.0719 75.4923 67.5731C75.0685 68.4567 75.8107 69.6741 76.8729 69.6675C78.0061 69.6606 78.8546 68.1189 77.969 67.1911C77.6856 66.8941 77.2741 66.7196 76.8532 66.721ZM8.09812 66.721C7.0594 66.7308 6.23946 67.9833 6.79606 68.9261C7.36878 69.8961 9.21596 69.845 9.56676 68.5806C9.80577 67.7188 9.09516 66.7177 8.09812 66.721ZM57.1667 24.0128C57.756 24.5036 58.2217 25.1542 58.6846 25.7923C59.7592 27.2736 60.6144 28.9031 61.2253 30.6148L61.2639 30.725L61.3219 31.0288C61.3105 31.1311 61.3144 31.2362 61.2879 31.3358C61.2162 31.6065 61.1401 31.6502 60.9636 31.8591L57.8969 34.5688C58.1393 36.085 58.1461 37.6587 57.9107 39.1928L57.8969 39.2793L60.9636 41.989C61.1401 42.1979 61.2162 42.2415 61.2879 42.5122C61.3559 42.7688 61.2917 43.0485 61.2052 43.2897C60.3841 45.5767 59.1087 47.7149 57.4864 49.5466L57.4076 49.6345L57.1667 49.8353C56.9128 49.9447 56.8493 50.0044 56.5626 49.9988C56.4571 49.9968 56.3543 49.9648 56.25 49.9479L52.3097 48.7137C51.073 49.6848 49.6789 50.4732 48.2089 51.0371L48.125 51.069L47.2513 55.0129C47.154 55.2663 47.1533 55.3523 46.9488 55.5482C46.7542 55.7344 46.4707 55.8202 46.2168 55.8671C43.7362 56.325 41.1619 56.3107 38.6811 55.8334L38.3826 55.7304C38.1584 55.5707 38.0737 55.5468 37.9353 55.3021C37.8844 55.2119 37.8614 55.1092 37.8243 55.0129L36.9505 51.069C35.4716 50.5113 34.0804 49.7343 32.8361 48.7686L32.766 48.7137L28.8255 49.9479C28.5517 49.9925 28.4749 50.0349 28.1985 49.9601C27.9358 49.889 27.7177 49.6921 27.5494 49.5016C25.9046 47.639 24.6284 45.4551 23.8116 43.123L23.7537 42.8193C23.7835 42.5503 23.7622 42.4666 23.9106 42.2273C23.9651 42.1393 24.0448 42.0684 24.112 41.989L27.1787 39.2793C26.9341 37.75 26.9282 36.189 27.165 34.6552L27.1787 34.5688L24.112 31.8591C23.9354 31.6502 23.8593 31.6065 23.7877 31.3358C23.7197 31.0793 23.784 30.7995 23.8705 30.5585C24.6925 28.268 25.9515 26.1505 27.5892 24.3015L27.6679 24.2135L27.9088 24.0128C28.1627 23.9033 28.2263 23.8437 28.513 23.8492C28.6185 23.8514 28.7213 23.8832 28.8255 23.9001L32.766 25.1344C34.006 24.1595 35.3862 23.3786 36.8666 22.8109L36.9505 22.7792L37.8243 18.8353C37.9216 18.5817 37.9223 18.4957 38.1269 18.2998C38.3216 18.1133 38.6065 18.0275 38.8588 17.981C41.3377 17.5236 43.9137 17.5373 46.3944 18.0146L46.693 18.1177C46.7783 18.1785 46.8734 18.2278 46.9488 18.3C47.1533 18.4957 47.154 18.5819 47.2513 18.8353L48.125 22.7791C49.5943 23.3325 50.9944 24.114 52.2395 25.0794L52.3097 25.1344L56.25 23.9001C56.5615 23.8495 56.5638 23.8494 56.877 23.8879C56.9736 23.9296 57.0701 23.9711 57.1667 24.0128ZM42.4839 19.7761C41.6022 19.7801 40.722 19.8474 39.8517 19.9771L39.8066 19.9841L38.9601 23.8053L38.8201 24.1426C38.7375 24.2332 38.6694 24.3388 38.572 24.4144C38.3839 24.5601 38.1464 24.6201 37.9328 24.6963C36.3928 25.2499 34.9581 26.0823 33.7266 27.1319L33.4077 27.321C33.0442 27.3942 33.0403 27.3943 32.6727 27.3441L28.8548 26.1483C27.717 27.5253 26.7977 29.0746 26.1402 30.7182L26.1237 30.7598L29.095 33.3852L29.3247 33.6722C29.364 33.7874 29.4238 33.8978 29.4421 34.0179C29.5069 34.4423 29.3381 34.8551 29.2817 35.2912C29.1018 36.6797 29.1547 38.0948 29.4332 39.4662L29.4421 39.8301C29.3254 40.1741 29.3236 40.1773 29.095 40.4628L26.1237 43.0882C26.7771 44.7369 27.6927 46.2865 28.8262 47.6652L28.8548 47.6999L32.6727 46.5039L33.0422 46.4534C33.1641 46.478 33.292 46.4826 33.4077 46.5271C33.6316 46.613 33.8036 46.7836 33.9779 46.9258C35.2382 47.9478 36.6927 48.743 38.2444 49.2591L38.572 49.4336C38.8189 49.7041 38.8208 49.7073 38.9601 50.0429L39.8066 53.8641C41.5997 54.1368 43.4331 54.1377 45.2238 53.8709L45.2689 53.8641L46.1155 50.0429L46.2554 49.7054C46.3381 49.6148 46.4062 49.5092 46.5036 49.4336C46.6916 49.2879 46.9292 49.2279 47.1427 49.1519C48.6837 48.5981 50.1179 47.7652 51.349 46.7162L51.6678 46.5271C52.0315 46.4538 52.0353 46.4537 52.4029 46.5039L56.2208 47.6999C57.3677 46.313 58.2914 44.7522 58.9519 43.0882L55.9807 40.4628C55.8263 40.2702 55.6701 40.0687 55.6336 39.8307C55.5981 39.5987 55.6635 39.3682 55.7027 39.1502C55.9803 37.5715 55.9601 35.9521 55.6422 34.381L55.6336 34.0173C55.7503 33.6738 55.7521 33.6704 55.9807 33.3852L58.9519 30.7598C58.2967 29.1094 57.381 27.5607 56.2494 26.1828L56.2208 26.1483L52.4029 27.3441L52.0332 27.3946C51.9115 27.3701 51.7836 27.3654 51.6678 27.321C51.4438 27.235 51.2722 27.0646 51.0978 26.9224C49.835 25.8985 48.3863 25.1062 46.831 24.5889L46.5036 24.4144C46.2567 24.1441 46.2546 24.1409 46.1155 23.8053L45.2689 19.9841C44.3479 19.8438 43.4126 19.7748 42.4839 19.7761ZM42.4854 46.3281C43.1476 46.3281 43.6852 46.8523 43.6852 47.4979C43.6852 48.1435 43.1476 48.6676 42.4854 48.6676C41.8231 48.6676 41.2854 48.1435 41.2854 47.4979C41.2854 46.8523 41.8231 46.3281 42.4854 46.3281ZM11.4369 27.2672C11.4284 27.2683 11.4199 27.2692 11.4113 27.2701C11.0694 27.306 10.4373 27.246 9.86316 27.3101C5.83222 27.7599 2.39342 31.2628 2.11027 35.2122C1.78011 39.8184 5.74039 44.3328 10.8154 44.38C13.1958 44.3873 15.5763 44.3938 17.9567 44.3995C18.5448 44.4009 19.0206 44.866 19.0206 45.4392V45.4393C19.0206 45.7155 18.9079 45.9804 18.7074 46.1754C18.5068 46.3704 18.2348 46.4797 17.9516 46.479C15.5683 46.4733 13.185 46.4668 10.8019 46.4594C6.49063 46.4195 2.34477 43.6772 0.738242 39.7788C-0.986492 35.5935 0.39141 30.3834 4.03083 27.5257C5.75064 26.1752 7.88767 25.3585 10.1031 25.2008C10.1031 25.2008 9.90225 24.1517 9.84239 23.3184C9.46659 18.0796 12.2436 12.729 16.8478 9.92599C19.8314 8.10962 23.4819 7.38556 26.9712 7.88368C26.9712 7.88368 27.5887 7.0569 28.1485 6.42209C31.6255 2.48029 36.8754 0.0756176 42.2514 0.00127926C42.3554 0.000213477 42.4594 -0.000186549 42.5634 7.98966e-05C48.5957 0.0356504 54.4594 2.99346 57.9796 7.87408C57.9796 7.87408 58.9819 7.74299 59.9403 7.72554C65.6537 7.62203 71.2658 10.9972 73.7291 16.0557C75.1009 18.8724 75.4971 22.122 74.869 25.1864C74.869 25.1864 75.7426 25.2725 76.4296 25.4185C80.3292 26.2469 83.6322 29.3236 84.6542 33.0954C85.6079 36.6153 84.5505 40.5815 81.954 43.2047C79.9408 45.2387 77.0885 46.4324 74.1689 46.4594C71.7856 46.4668 69.4023 46.4733 67.0192 46.479C66.7359 46.4797 66.464 46.3704 66.2634 46.1754C66.0629 45.9804 65.9501 45.7155 65.9501 45.4393V45.4392C65.9501 44.866 66.426 44.4009 67.014 44.3995C69.3944 44.3938 71.775 44.3873 74.1554 44.38C78.013 44.3441 81.6708 41.5873 82.6189 37.9052C83.3746 34.9699 82.3851 31.6661 80.1188 29.5845C78.4134 28.0181 76.0567 27.1697 73.6957 27.2636C73.6228 27.2945 73.5466 27.3193 73.4684 27.3385C73.4374 27.3463 73.4374 27.3463 73.4062 27.3545C71.3761 27.9036 69.5517 29.2981 68.4544 31.0694C68.4544 31.0694 68.104 31.5246 67.646 31.577C66.8383 31.6696 66.1212 30.7021 66.6192 29.9088C67.9577 27.7768 70.1807 26.0719 72.5857 25.3663C72.7199 24.7823 72.9193 24.0898 72.9814 23.4061C73.4182 18.5929 70.71 13.6337 66.3251 11.31C63.7635 9.95263 60.7226 9.50047 57.8514 10.0164L57.7593 10.021C57.731 10.0288 57.73 10.0291 57.7 10.0376C55.7045 10.6231 53.9325 12.0282 52.8612 13.8093C52.8612 13.8093 52.5633 14.2812 52.0994 14.3716C51.279 14.5316 50.4648 13.5844 50.9724 12.7357C52.0712 10.8984 53.8243 9.35313 55.7769 8.47186C52.7101 4.63011 47.8646 2.17228 42.7625 2.08169C42.647 2.08009 42.5314 2.07942 42.416 2.07956C37.2996 2.1098 32.2941 4.55857 29.1523 8.52448C29.4386 8.67835 29.7227 8.84781 30.0036 9.01647C31.5611 9.95156 32.9301 11.1965 33.8505 12.7357C34.2965 13.4814 33.5669 14.619 32.6284 14.3487C32.1908 14.2227 31.9719 13.7865 31.6637 13.3549C30.5371 11.7769 28.8203 10.4759 26.9968 10.0033C26.9968 10.0033 26.9829 9.99859 26.9592 9.98953C22.7998 9.3029 18.2762 10.7449 15.372 13.7857C12.486 16.8074 11.3102 21.2478 12.314 25.2902C12.9536 25.4298 13.5208 25.7395 14.0942 26.0368C15.8611 26.9525 17.4295 28.266 18.4752 29.939C18.4752 29.939 18.797 30.5853 18.4894 31.0751C18.1005 31.6941 17.0345 31.7336 16.6058 31.0445C16.5916 31.0216 16.5771 30.9988 16.5626 30.976C15.6136 29.5008 14.1296 28.3439 12.476 27.6389C12.174 27.5102 11.8633 27.3987 11.5427 27.323C11.5427 27.323 11.5013 27.3041 11.4369 27.2672ZM42.5881 29.311C45.4608 29.3378 48.2527 31.029 49.5342 33.5405C50.5869 35.6034 50.6133 38.1258 49.576 40.2242C47.8881 43.6391 43.3646 45.5057 39.5425 43.956C37.05 42.9454 35.1799 40.5968 34.8042 37.9873C34.4566 35.5721 35.3864 33.0147 37.2187 31.3516C38.6351 30.066 40.539 29.3291 42.4874 29.311C42.521 29.311 42.5545 29.311 42.5881 29.311ZM52.3594 41.3891C53.0217 41.3891 53.5594 41.9133 53.5594 42.5589C53.5594 43.2045 53.0217 43.7286 52.3594 43.7286C51.6972 43.7286 51.1596 43.2045 51.1596 42.5589C51.1596 41.9133 51.6972 41.3891 52.3594 41.3891ZM33.1445 41.3891C33.8068 41.3891 34.3444 41.9133 34.3444 42.5589C34.3444 43.2045 33.8068 43.7286 33.1445 43.7286C32.4823 43.7286 31.9446 43.2045 31.9446 42.5589C31.9446 41.9133 32.4823 41.3891 33.1445 41.3891ZM42.5014 31.4425C39.934 31.4664 37.5065 33.3904 37.0156 35.8859C36.6668 37.6594 37.2858 39.5838 38.6109 40.8456C40.1622 42.3226 42.6216 42.8139 44.6615 42.0007C46.4602 41.2836 47.8184 39.6042 48.101 37.7252C48.5452 34.7719 46.1364 31.674 42.9354 31.4559C42.7909 31.4461 42.6464 31.4422 42.5014 31.4425ZM52.3594 30.7313C53.0217 30.7313 53.5594 31.2555 53.5594 31.9011C53.5594 32.5467 53.0217 33.0708 52.3594 33.0708C51.6972 33.0708 51.1596 32.5467 51.1596 31.9011C51.1596 31.2555 51.6972 30.7313 52.3594 30.7313ZM33.1445 30.7313C33.8068 30.7313 34.3444 31.2555 34.3444 31.9011C34.3444 32.5467 33.8068 33.0708 33.1445 33.0708C32.4823 33.0708 31.9446 32.5467 31.9446 31.9011C31.9446 31.2555 32.4823 30.7313 33.1445 30.7313ZM42.4854 25.7493C43.1476 25.7493 43.6852 26.2734 43.6852 26.919C43.6852 27.5646 43.1476 28.0888 42.4854 28.0888C41.8231 28.0888 41.2854 27.5646 41.2854 26.919C41.2854 26.2734 41.8231 25.7493 42.4854 25.7493Z" fill="white"/>
</svg>
