<svg width="87" height="84" viewBox="0 0 87 84" fill="none" xmlns="http://www.w3.org/2000/svg">
<path d="M62.8879 84C76.2037 84 86.9983 73.1163 86.9983 59.6906C86.9983 46.2649 76.2037 35.3812 62.8879 35.3812C49.5722 35.3812 38.7776 46.2649 38.7776 59.6906C38.7776 73.1163 49.5722 84 62.8879 84Z" fill="#0B3866" fill-opacity="0.2"/>
<path d="M16.3303 38.8819C23.9891 38.8819 30.1977 32.622 30.1977 24.9001C30.1977 17.1782 23.9891 10.9183 16.3303 10.9183C8.67163 10.9183 2.46301 17.1782 2.46301 24.9001C2.46301 32.622 8.67163 38.8819 16.3303 38.8819Z" fill="#07F49E" fill-opacity="0.06"/>
<path fill-rule="evenodd" clip-rule="evenodd" d="M4.65094 67.6353V16.7421C4.65094 16.7421 13.1936 16.7421 16.2783 16.7421C16.5686 16.7421 16.847 16.8584 17.0521 17.0653C17.2573 17.2722 17.3726 17.5528 17.3726 17.8455C17.3726 18.1382 17.2573 18.4187 17.0521 18.6257C16.847 18.8326 16.5686 18.9489 16.2783 18.9489C13.5825 18.9489 6.83962 18.9489 6.83962 18.9489V67.6353H34.3349H52.6651H80.1604V18.9489C80.1604 18.9489 73.4175 18.9489 70.7217 18.9489C70.4314 18.9489 70.1531 18.8326 69.9479 18.6257C69.7427 18.4187 69.6274 18.1382 69.6274 17.8455C69.6274 17.5528 69.7427 17.2722 69.9479 17.0653C70.1531 16.8584 70.4314 16.7421 70.7217 16.7421C73.8064 16.7421 82.3491 16.7421 82.3491 16.7421V67.6353H87C87 68.2335 87 68.8318 87 69.4299C86.9899 72.8068 84.7231 76.0987 81.5127 77.2359C80.6562 77.5392 79.7523 77.6948 78.8435 77.7034C55.2812 77.7753 31.7188 77.7753 8.15652 77.7034C4.73589 77.6709 1.47791 75.3315 0.399845 71.9798C0.135562 71.1578 0.00259906 70.2965 0 69.4299V67.6353H4.65094ZM4.65094 69.842H2.20263C2.41548 72.8362 5.01399 75.4666 8.1702 75.4967C31.7233 75.5686 55.2767 75.5686 78.8298 75.4967C81.78 75.4686 84.551 73.0675 84.7946 69.879L84.7974 69.842H82.3491H52.6651V70.6127C52.6562 71.9306 51.5337 73.1257 50.1755 73.1519C45.7349 73.1825 41.2941 73.1522 36.8535 73.1522C35.5335 73.1431 34.3424 71.9899 34.3349 70.6119V69.842H4.65094ZM50.4764 69.842H36.5236C36.5236 70.3034 36.4273 70.9371 36.853 70.9454C41.2874 70.9759 45.7242 71.0865 50.1565 70.9451C50.3262 70.9375 50.4731 70.7861 50.4764 70.6133V69.842ZM36.934 52.4363V47.7745C36.9393 47.5652 36.9606 47.5022 37.0043 47.3853C37.15 46.9958 37.5276 46.7069 37.9439 46.6745C38.0527 46.6659 38.0781 46.6727 38.1127 46.6745C38.2952 46.6935 38.3448 46.7132 38.4406 46.7524C38.8057 46.9022 39.0761 47.2635 39.1169 47.661C39.122 47.7114 39.1214 47.7241 39.1226 47.7745V52.4472C40.528 52.8857 41.6887 54.1225 41.9266 55.6273C42.2047 57.3858 41.1602 59.2661 39.5207 59.942C37.7795 60.6602 35.5729 59.9113 34.6167 58.2594C33.7865 56.825 33.9772 54.8644 35.075 53.6164C35.569 53.0547 36.2187 52.6461 36.934 52.4363ZM47.8774 52.4364V47.7745C47.882 47.5897 47.8977 47.5383 47.9292 47.439C48.0605 47.0243 48.4537 46.7083 48.8873 46.6745C48.996 46.6659 49.0215 46.6727 49.0561 46.6745C49.2628 46.696 49.3235 46.7223 49.4356 46.7752C49.7758 46.9357 50.0214 47.2823 50.0603 47.661C50.0654 47.7114 50.0648 47.7241 50.066 47.7745V52.4471C51.4487 52.8777 52.5964 54.0802 52.8577 55.5536C53.1727 57.3302 52.1228 59.2586 50.4637 59.9423C48.7227 60.6596 46.5163 59.9113 45.5601 58.2594C44.7309 56.8268 44.9194 54.865 46.0186 53.6161C46.5129 53.0546 47.1623 52.6461 47.8774 52.4364ZM38.0167 54.4833C37.3141 54.4901 36.6407 54.9575 36.3871 55.6173C35.9816 56.6724 36.8461 58.0303 38.0283 58.0303C38.8242 58.0303 39.5824 57.4204 39.7493 56.6254C39.9615 55.6153 39.1574 54.5007 38.0514 54.4833C38.0398 54.4833 38.0283 54.4832 38.0167 54.4833ZM48.9601 54.4833C48.256 54.4902 47.5833 54.9596 47.3305 55.6173C46.9276 56.6657 47.7749 58.0152 48.9486 58.03C49.757 58.0402 50.5311 57.4207 50.6949 56.6146C50.8969 55.6209 50.1205 54.5293 49.0404 54.4846C49.0136 54.4836 48.9869 54.4832 48.9601 54.4833ZM58.9503 50.4086L54.5973 46.0196V42.8041C54.5973 42.8041 54.6383 42.3197 54.8985 42.0439C55.0769 41.8547 55.3234 41.7327 55.581 41.7064C55.6878 41.6955 55.7128 41.7013 55.747 41.7021C55.9269 41.7159 55.9763 41.7338 56.0716 41.7694C56.4523 41.9115 56.7389 42.2822 56.7804 42.6925C56.7853 42.7419 56.7847 42.7545 56.786 42.8041V45.1055L60.4851 48.8352C61.0782 48.5022 61.7558 48.3191 62.4392 48.3211C64.2688 48.3389 65.9877 49.7722 66.304 51.6226C66.6074 53.3975 65.5498 55.3209 63.8836 55.9958C62.1437 56.7004 59.9389 55.9481 58.9898 54.2822C58.3235 53.1129 58.331 51.5998 58.9503 50.4086ZM26.4974 48.8528L30.214 45.1055V42.8041C30.214 42.8041 30.2605 42.2859 30.5544 42.0044C30.7288 41.8373 30.9589 41.731 31.1977 41.7064C31.3045 41.6955 31.3297 41.7013 31.3638 41.7021C31.5676 41.7178 31.6281 41.7417 31.74 41.7901C32.0966 41.9445 32.3576 42.3 32.3971 42.6925C32.4022 42.7419 32.4015 42.7545 32.4027 42.8041V46.0196L28.0435 50.4146C28.2647 50.8086 28.4192 51.2409 28.4884 51.6964C28.7551 53.4538 27.6972 55.3311 26.0561 55.9958C24.3094 56.7032 22.0951 55.9406 21.1507 54.262C20.3447 52.8294 20.5461 50.8954 21.6332 49.6605C22.3762 48.8164 23.4858 48.3178 24.6116 48.3211C25.2771 48.3276 25.9256 48.5211 26.4974 48.8528ZM62.4023 50.5277C61.6881 50.5348 61.0063 51.019 60.7612 51.6925C60.3795 52.7412 61.2349 54.0591 62.3913 54.0745C63.1851 54.0852 63.9464 53.4914 64.1279 52.7017C64.3591 51.6958 63.5755 50.5666 62.4711 50.5287C62.4481 50.528 62.4252 50.5277 62.4023 50.5277ZM24.5746 50.5277C23.8804 50.5345 23.2122 50.9923 22.9527 51.6423C22.534 52.691 23.3829 54.0588 24.5637 54.0745C25.3642 54.0853 26.1326 53.4765 26.3049 52.6804C26.5215 51.6815 25.7296 50.5745 24.6548 50.5291C24.6281 50.5282 24.6014 50.5277 24.5746 50.5277ZM43.3363 2.80417C44.3134 1.20042 46.0568 0.0570481 47.9162 0.0021552C50.4952 -0.0738397 52.883 1.86948 53.4413 4.31732C53.5562 4.82087 53.5463 4.59068 53.5463 4.59068C53.7991 4.56213 54.0533 4.54571 54.308 4.54171C54.3645 4.54116 54.421 4.54116 54.4776 4.54157C58.1254 4.58916 61.2064 7.55944 61.6976 11.0073C61.8125 11.8136 61.7288 12.7533 61.7288 12.7533C63.3873 14.0265 64.6292 15.8833 65.1231 17.9307C65.7128 20.3758 65.2445 23.0238 63.9233 25.1384C63.3452 26.0637 62.5865 26.863 61.7265 27.5464L61.7342 27.6268C61.8659 29.1329 61.5444 30.6881 60.7985 32.0058C59.5928 34.1357 57.2761 35.5395 54.8573 35.7245C54.1942 35.7752 53.4934 35.7112 53.4934 35.7112C52.9971 38.3452 50.5627 40.2048 48.0132 40.2568C46.2323 40.2931 44.6619 39.3872 43.6624 38.0506C42.7003 39.6465 40.9747 40.78 38.9868 40.7394C36.4373 40.6874 34.0029 38.828 33.5066 36.1939C33.5066 36.1939 32.8058 36.2578 32.1427 36.207C29.7239 36.0221 27.4072 34.6183 26.2015 32.4884C25.4556 31.1708 25.1341 29.6156 25.2658 28.1094L25.2735 28.0291C24.4135 27.3457 23.6548 26.5463 23.0767 25.6211C21.7555 23.5064 21.2872 20.8586 21.8769 18.4133C22.3708 16.3659 23.6127 14.5092 25.2712 13.2359C25.2712 13.2359 25.1875 12.2962 25.3024 11.4901C25.7936 8.04203 28.8746 5.07189 32.5224 5.02416C32.579 5.02375 32.6355 5.02389 32.692 5.02444C32.9467 5.02844 33.2009 5.04471 33.4537 5.07326C33.4537 5.07326 33.4438 5.30359 33.5587 4.7999C34.117 2.35207 36.5048 0.408887 39.0838 0.484882C40.7507 0.533982 42.3244 1.45806 43.3363 2.80417ZM42.4232 35.2689C42.4743 32.6549 42.4411 11.5349 42.4266 6.9461C42.4245 6.29649 42.4578 5.6484 42.2561 5.03216C41.8017 3.64329 40.4639 2.58047 38.9891 2.55095C38.9562 2.55054 38.9563 2.55067 38.9232 2.55067C36.9419 2.57564 35.1064 4.55578 35.5417 6.61688C35.6749 7.24732 36.0915 7.77736 36.5779 8.17968L36.7284 8.33015C37.0698 8.84653 37.084 9.71157 36.3694 9.99183C35.7384 10.2393 35.0745 9.68799 34.5592 9.06169C34.1093 8.51497 33.7731 7.87308 33.5862 7.18898C31.1807 6.6013 28.2457 8.35608 27.5013 10.942C27.1222 12.2589 27.1906 13.711 28.0946 14.9453C28.5482 15.5647 29.2045 16.0467 29.9763 16.1898C30.6641 16.3718 30.737 16.7388 30.7713 17.0515C30.8431 17.7072 30.2318 18.34 29.4944 18.2026C29.2743 18.1567 29.2412 18.1452 29.1245 18.111C27.7704 17.7135 26.6461 16.657 25.9605 15.3865L25.9478 15.3625C24.7434 16.4954 23.9209 18.0516 23.7262 19.7059C23.4607 21.9623 24.3061 24.3131 25.9465 25.8895C26.6771 24.504 27.9605 23.3777 29.5068 23.063C29.8295 23.0006 29.8885 23.0213 30.0679 23.083C30.8684 23.3577 30.9847 24.8179 29.9119 25.0888C28.6256 25.3882 27.7359 26.5687 27.3761 27.8036C27.3761 27.8036 27.2757 28.3389 27.2859 28.862C27.3363 31.4755 29.4785 33.9247 32.1542 34.1495C32.6145 34.1883 33.0791 34.167 33.534 34.0859C33.7791 32.9936 34.4029 32.0059 35.2767 31.2905C35.6487 30.986 36.221 30.8908 36.6269 31.2449C37.1345 31.6875 36.9883 32.5022 36.4202 33.0256C35.8999 33.5103 35.5446 34.1723 35.4809 34.884C35.4265 35.4944 35.6822 36.8455 36.5411 37.6869C37.2921 38.4229 38.3686 38.8398 39.4248 38.6663C41.0216 38.4041 42.3797 36.9445 42.4232 35.2689ZM44.5734 6.46351C44.5589 11.0471 44.5275 32.2634 44.5768 34.7863C44.6203 36.4619 45.9784 37.9214 47.5752 38.1837C48.6314 38.3571 49.7079 37.9402 50.4589 37.2044C51.3178 36.3628 51.5735 35.0118 51.519 34.4014C51.4554 33.6896 51.1 33.0275 50.5798 32.543C50.0117 32.0195 49.8655 31.2049 50.3731 30.7622C50.779 30.4083 51.3513 30.5034 51.7233 30.808C52.5971 31.5234 53.2209 32.5109 53.466 33.6032C53.9208 33.6843 54.3855 33.7056 54.8458 33.6669C57.5215 33.4421 59.6637 30.9929 59.7141 28.3794C59.7243 27.8562 59.6239 27.321 59.6239 27.321C59.2641 26.0861 58.3744 24.9055 57.0881 24.606C56.0153 24.3353 56.1315 22.8751 56.9321 22.6004C57.1115 22.5387 57.1705 22.518 57.4932 22.5802C59.0395 22.8951 60.3229 24.0212 61.0535 25.4068C62.6939 23.8305 63.5393 21.4798 63.2738 19.2232C63.0791 17.569 62.2566 16.0128 61.0522 14.8799L61.0395 14.9038C60.3539 16.1743 59.2296 17.2309 57.8755 17.6283C57.7588 17.6626 57.7257 17.6741 57.5056 17.7199C56.7682 17.8574 56.1569 17.2246 56.2287 16.5689C56.263 16.2562 56.3359 15.8891 57.0237 15.707C57.7955 15.5641 58.4518 15.082 58.9054 14.4627C59.8094 13.2283 59.8777 11.7763 59.4987 10.4594C58.7543 7.87349 55.8193 6.11871 53.4138 6.7064C53.2269 7.39049 52.8907 8.03237 52.4408 8.5791C51.9255 9.20526 51.2616 9.75667 50.6306 9.50924C49.916 9.22899 49.9302 8.36394 50.2716 7.84756L50.4221 7.69709C50.9085 7.29477 51.3251 6.76474 51.4583 6.13416C51.8936 4.07319 50.0581 2.09305 48.0768 2.06808C48.0437 2.06808 48.0438 2.06795 48.0109 2.06836C46.5361 2.09774 45.1983 3.1607 44.7439 4.54957C44.5422 5.16567 44.5755 5.8139 44.5734 6.46351ZM35.9972 24.5413C36.5077 24.5663 36.8817 25.0114 37.0128 25.5635C37.3166 26.8078 38.5492 27.6769 39.7605 28.0083C39.7605 28.0083 40.7 28.4684 40.509 29.2399C40.3665 29.8163 39.7212 30.1521 39.0754 29.9622C38.9712 29.9316 38.8678 29.8985 38.7652 29.8631C37.063 29.2736 35.5358 27.9978 35.049 26.1692C34.8717 25.5036 35.0123 24.6419 35.8548 24.5477C35.896 24.543 35.9005 24.5397 35.9972 24.5413ZM51.0028 24.0586C50.4923 24.0837 50.1183 24.5287 49.9872 25.0809C49.6834 26.3252 48.4508 27.1943 47.2395 27.5257C47.2395 27.5257 46.3 27.9858 46.491 28.7572C46.6335 29.3337 47.2788 29.6695 47.9245 29.4796C48.0288 29.449 48.1322 29.4159 48.2348 29.3803C49.937 28.791 51.4642 27.5152 51.951 25.6866C52.1283 25.0209 51.9877 24.1593 51.1452 24.065C51.104 24.0604 51.0995 24.0571 51.0028 24.0586ZM35.0947 19.0337C35.9443 19.0518 36.8467 19.3142 37.3828 19.9714C37.8988 20.6041 37.3951 21.8926 36.4102 21.6665C36.0385 21.5811 35.7922 21.2275 35.403 21.1326C34.9075 21.0119 34.3874 21.1468 33.9165 21.3305C33.9165 21.3305 32.8777 21.5255 32.6028 20.7352C32.3946 20.1364 32.793 19.5142 33.505 19.2846C33.9965 19.1261 34.5107 19.037 35.0261 19.0333C35.0603 19.0333 35.0603 19.0333 35.0947 19.0337ZM51.9053 18.5511C51.0557 18.5692 50.1533 18.8317 49.6172 19.4889C49.1012 20.1215 49.6049 21.41 50.5898 21.1839C50.9615 21.0985 51.2078 20.7449 51.597 20.65C52.0925 20.5292 52.6126 20.6642 53.0835 20.8479C53.0835 20.8479 54.1223 21.043 54.3972 20.2525C54.6054 19.6538 54.207 19.0316 53.495 18.802C53.0035 18.6434 52.4893 18.5544 51.9739 18.5507C51.9397 18.5507 51.9397 18.5507 51.9053 18.5511ZM36.0262 11.3499C36.4992 11.3923 36.9502 11.6004 37.3922 11.8061C38.9568 12.5336 40.3486 13.9507 40.5283 15.6644C40.6163 16.503 39.4683 17.3113 38.7709 16.5278C38.5652 16.2967 38.5124 15.9694 38.4261 15.6713C38.0624 14.4424 36.8095 13.6898 35.7342 13.3895C35.7342 13.3895 35.1414 13.1449 34.99 12.687C34.7919 12.0877 35.2983 11.3679 35.9704 11.3483C35.989 11.3488 36.0076 11.3494 36.0262 11.3499ZM50.9738 10.8674C50.5008 10.9097 50.0498 11.1178 49.6078 11.3233C48.0432 12.051 46.6514 13.4682 46.4717 15.1818C46.3837 16.0204 47.5317 16.8286 48.229 16.0452C48.4348 15.8141 48.4876 15.4868 48.5739 15.1886C48.9376 13.9597 50.1905 13.2071 51.2658 12.9068C51.2658 12.9068 51.8586 12.6621 52.01 12.2042C52.2081 11.6051 51.7017 10.8853 51.0296 10.8657C51.011 10.8663 50.9924 10.8668 50.9738 10.8674Z" fill="white"/>
</svg>
