<svg width="409" height="502" viewBox="0 0 409 502" fill="none" xmlns="http://www.w3.org/2000/svg">
<g clip-path="url(#clip0_119_9)">
<path d="M286.355 455.781C293.371 459.837 293.45 466.431 286.444 470.522L258.062 487.02C251.091 491.075 239.649 491.067 232.633 487.02L129.253 427.294C122.237 423.238 122.157 416.644 129.173 412.562L157.555 396.064C164.517 392.017 175.959 392.008 182.974 396.064L286.355 455.781Z" fill="url(#paint0_linear_119_9)"/>
<path d="M291.561 464.141C291.506 464.466 291.426 464.787 291.322 465.099C291.212 465.428 291.079 465.749 290.923 466.058C290.755 466.384 290.566 466.698 290.355 466.999C290.134 467.309 289.894 467.605 289.637 467.886C289.358 468.198 289.062 468.495 288.75 468.773C288.415 469.069 288.066 469.348 287.703 469.608C287.325 469.88 286.92 470.14 286.488 470.389L258.106 486.887C257.675 487.141 257.225 487.378 256.758 487.596C256.297 487.815 255.821 488.02 255.33 488.209C254.845 488.392 254.349 488.561 253.84 488.715H253.796C253.308 488.866 252.811 488.999 252.306 489.114H252.146C251.694 489.221 251.259 489.309 250.78 489.389C250.301 489.469 249.955 489.522 249.538 489.576L248.989 489.655C248.385 489.726 247.773 489.78 247.161 489.815C246.549 489.851 246.079 489.815 245.547 489.815H245.405C244.861 489.815 244.314 489.8 243.765 489.771H243.694C243.138 489.741 242.585 489.694 242.035 489.629H241.991C241.435 489.564 240.882 489.487 240.332 489.398C239.782 489.303 239.238 489.194 238.7 489.07C238.162 488.945 237.636 488.803 237.121 488.644C236.601 488.484 236.096 488.312 235.605 488.129C235.108 487.94 234.626 487.736 234.159 487.517C233.692 487.298 233.24 487.061 232.802 486.807L129.421 427.081C128.984 426.826 128.57 426.563 128.179 426.291C127.806 426.014 127.448 425.718 127.106 425.403C126.494 424.878 125.947 424.282 125.474 423.628V423.584C125.303 423.33 125.146 423.066 125.004 422.794L124.827 422.448C124.738 422.253 124.658 422.058 124.579 421.862C124.499 421.667 124.49 421.632 124.454 421.516C124.391 421.309 124.337 421.099 124.295 420.886C124.295 420.789 124.25 420.682 124.233 420.584C124.185 420.276 124.162 419.965 124.162 419.653V431.607C124.162 431.919 124.185 432.23 124.233 432.539C124.233 432.636 124.233 432.743 124.295 432.84C124.337 433.053 124.391 433.263 124.454 433.47C124.454 433.586 124.534 433.701 124.579 433.816C124.623 433.932 124.729 434.207 124.827 434.402L124.995 434.748C124.995 434.819 125.057 434.89 125.102 434.961C125.146 435.032 125.315 435.316 125.439 435.494V435.538L125.643 435.822L125.918 436.159L126.166 436.443L126.397 436.692L126.645 436.94L126.867 437.153L127.08 437.34L127.301 437.535L127.532 437.721L127.736 437.881L127.949 438.041L128.135 438.174L128.357 438.334L128.561 438.476L128.774 438.609L128.995 438.742L129.217 438.875L129.341 438.946L232.722 498.672L232.82 498.725L233.033 498.849L233.254 498.965L233.476 499.08L233.698 499.196L233.92 499.302L234.088 499.382L234.31 499.488L234.532 499.586L234.762 499.684L234.993 499.781L235.223 499.87L235.454 499.959H235.498L235.685 500.03L235.924 500.119L236.163 500.198L236.412 500.278L236.66 500.358L236.909 500.438H237.015H237.139L237.396 500.509L237.662 500.58L237.929 500.651L238.203 500.722L238.478 500.793H238.594H238.736L239.037 500.855L239.339 500.917L239.64 500.979L239.951 501.033L240.226 501.077H240.288L240.625 501.13L240.962 501.183L241.317 501.228L241.716 501.281H241.902H242.07H242.47H242.931H243.419H243.631H243.906H244.518H245.973H247.02C247.632 501.281 248.244 501.192 248.847 501.121L249.397 501.042C249.813 500.988 250.23 500.926 250.638 500.855H250.816L251.703 500.669L251.969 500.607H252.128L252.421 500.536L253.006 500.385L253.521 500.234H253.618H253.663L253.947 500.145L254.372 500.003L254.754 499.87L255.091 499.746H255.162L255.401 499.657L255.729 499.524L256.013 499.409L256.288 499.284L256.563 499.16L256.794 499.054L257.033 498.929L257.272 498.805L257.503 498.681L257.734 498.557L257.911 498.45L286.293 481.952H286.337L286.541 481.828L286.745 481.704L286.94 481.58L287.135 481.455L287.322 481.331L287.499 481.207L287.677 481.083L287.845 480.949L288.014 480.816L288.182 480.683L288.342 480.55L288.501 480.417H288.546L288.643 480.328L288.794 480.195L288.936 480.062L289.078 479.92L289.22 479.778L289.353 479.636L289.424 479.556L289.468 479.503L289.592 479.361L289.725 479.21L289.85 479.05L289.974 478.891L290.089 478.731L290.151 478.642V478.58L290.266 478.411L290.373 478.234L290.479 478.056L290.577 477.879L290.674 477.701L290.772 477.506L290.861 477.311L290.94 477.116L291.029 476.885V476.761V476.681L291.1 476.45L291.162 476.193C291.162 476.098 291.183 476.003 291.224 475.909V475.802V475.669C291.224 475.557 291.224 475.444 291.224 475.332C291.224 475.208 291.224 475.092 291.224 474.968C291.224 474.844 291.224 474.879 291.224 474.826V462.872C291.381 463.282 291.494 463.707 291.561 464.141Z" fill="url(#paint1_linear_119_9)"/>
<path d="M247.002 317.63C246.882 317.803 246.724 317.945 246.541 318.047L229.325 328.058C229.066 328.201 228.784 328.3 228.492 328.351C227.818 328.466 227.127 328.43 226.469 328.244C226.141 328.154 225.825 328.023 225.529 327.854L225.334 394.032C225.396 372.165 225.458 350.032 225.52 327.863C225.52 321.127 220.74 312.776 214.877 309.43L186.327 292.932C180.464 289.542 175.639 292.293 175.621 299.038C175.362 298.926 175.136 298.749 174.965 298.523C174.794 298.298 174.684 298.032 174.646 297.751C174.646 306.36 174.622 314.965 174.575 323.567V325.751C174.575 331.608 174.557 337.465 174.522 343.322V344.458V350.138C174.522 354.907 174.522 359.675 174.522 364.444C174.522 370.875 174.504 377.309 174.468 383.746V385.379C174.468 394.502 174.442 403.625 174.389 412.748V417.532V424.134V430.737L227.48 461.408H228.891H228.97L229.059 461.363L246.275 451.353H246.328H246.372V451.042V450.421V450.368V450.261V450.19L246.425 431.802V430.373V423.753V428.004V421.374V422.581V417.123V411.559V402.418V397.147V393.144V378.475V374.925V362.323V357.184V350.511V357.184V361.196V348.487V342.612V337.128V334.59C246.425 333.374 246.425 332.202 246.425 331.102V327.499C246.425 327.262 246.425 327.026 246.425 326.789V324.81C246.425 323.701 246.425 322.591 246.425 321.491V321.26C246.425 320.035 246.425 318.855 246.425 317.71V317.071C246.559 317.113 246.68 317.185 246.78 317.282C246.881 317.379 246.956 317.498 247.002 317.63ZM174.362 430.684L175.249 430.178L175.426 367.559C175.364 388.813 175.311 409.775 175.249 430.178L174.362 430.684ZM175.559 322.041C175.518 335.696 175.48 349.289 175.444 362.82L175.559 322.041ZM182.655 434.438L205.218 447.475L182.655 434.438ZM246.949 397.164V400.43V394.617V397.164Z" fill="url(#paint2_linear_119_9)"/>
<path d="M367.633 214.765C379.066 221.368 388.388 237.528 388.352 250.672L387.722 474.16C387.722 487.304 378.303 492.655 366.871 486.052L20.7276 286.126C9.28618 279.55 0 263.362 0 250.219L0.629722 26.7302C0.629722 13.5869 10.0489 8.23556 21.4904 14.8471L367.633 214.765Z" fill="url(#paint3_linear_119_9)"/>
<path d="M405.5 219.85C404.5 218.075 399.835 208.023 391.59 203.21L42.147 2.83093L38.9984 0.99994C38.9984 0.99994 36.8995 0.248434 34 -5.56149e-05C31.9266 -0.177748 29.2308 -0.00665426 27.3973 1.11814L6.71408 13.4183C7.67574 12.8628 8.72113 12.4672 9.80947 12.2469C10.3767 12.13 10.9518 12.0558 11.5301 12.025C12.1384 11.9828 12.7489 11.9828 13.3572 12.025C14.0043 12.0817 14.6471 12.1796 15.2818 12.3179C15.9601 12.4657 16.6294 12.6524 17.2863 12.877C17.9919 13.116 18.6846 13.3915 19.3617 13.7023C20.0654 14.0218 20.7749 14.3916 21.4904 14.8116L367.633 214.765C368.349 215.179 369.056 215.629 369.753 216.114C370.451 216.599 371.134 217.117 371.802 217.667C372.432 218.182 373.053 218.732 373.665 219.3L374.223 219.85C374.64 220.249 375.048 220.658 375.447 221.075L376.095 221.776C376.456 222.172 376.813 222.578 377.168 222.992L377.807 223.764C378.15 224.19 378.487 224.622 378.818 225.06L379.403 225.832C379.882 226.497 380.352 227.163 380.804 227.855C381.319 228.642 381.81 229.441 382.277 230.251C382.744 231.062 383.19 231.887 383.616 232.727C384.036 233.561 384.432 234.404 384.804 235.256C385.177 236.108 385.523 236.966 385.842 237.83C386.474 239.526 386.998 241.26 387.412 243.022C387.613 243.885 387.782 244.746 387.918 245.604C388.189 247.274 388.325 248.962 388.326 250.654L387.696 474.143C387.696 474.959 387.657 475.743 387.581 476.494C387.511 477.221 387.405 477.944 387.261 478.66C387.127 479.326 386.956 479.984 386.747 480.63C386.556 481.235 386.328 481.828 386.064 482.405C385.913 482.724 385.736 483.017 385.567 483.292C385.399 483.567 385.328 483.754 385.195 483.967C385.062 484.18 384.787 484.517 384.574 484.783C384.361 485.049 384.308 485.165 384.148 485.342C383.898 485.61 383.635 485.865 383.359 486.106C383.217 486.23 383.093 486.381 382.951 486.505C382.53 486.851 382.082 487.163 381.612 487.437L402.268 475.429C402.739 475.156 403.187 474.844 403.607 474.498C403.749 474.382 403.874 474.231 404.015 474.098C404.292 473.858 404.555 473.603 404.805 473.335C404.956 473.166 405.08 472.962 405.231 472.776C405.381 472.589 405.656 472.252 405.851 471.959C406.047 471.667 406.1 471.498 406.233 471.276C406.366 471.054 406.579 470.69 406.729 470.389L406.889 470.025L407.04 469.652L407.191 469.27L407.297 468.969L407.368 468.756V468.667V468.552L407.439 468.33L407.501 468.108L407.563 467.886L407.625 467.664L407.678 467.469V467.309V467.149V466.99V466.83V466.706V466.537V466.368V466.2V466.031V465.871V465.738V465.605V465.472V465.339V465.206V465.073V464.94V464.807V464.665V464.576V462.544C407.678 462.544 407.678 462.464 407.678 462.419C407.678 462.375 407.678 462.339 407.678 462.295V462.224C408.018 404.744 408.911 247 408.956 239.5C409 232 406.5 221.625 405.5 219.85Z" fill="url(#paint4_linear_119_9)"/>
<path d="M84.5247 288.557V283.481L84.4803 283.428L84.2142 283.117L83.9481 282.851L83.8595 282.771L83.6466 282.576L83.4958 282.443H83.4426L83.3096 282.336L82.9459 282.079L82.7242 281.937L82.6177 281.875L63.7527 272.059H63.6995L63.5842 271.997L63.4777 271.944L63.3802 271.9H60.95L58.8834 273.098C59.0765 272.988 59.2862 272.91 59.5043 272.867C59.7396 272.833 59.9785 272.833 60.2138 272.867C60.4828 272.891 60.7479 272.948 61.0032 273.036C61.3114 273.135 61.6086 273.266 61.8901 273.426L78.3161 282.869C78.6055 283.036 78.8813 283.226 79.141 283.437C79.4137 283.659 79.6715 283.899 79.9126 284.155C80.1638 284.437 80.3978 284.733 80.6133 285.043C80.8344 285.345 81.0387 285.659 81.2253 285.984C81.5971 286.625 81.8947 287.307 82.1122 288.016C82.3175 288.677 82.4251 289.365 82.4315 290.057C82.427 290.259 82.4092 290.461 82.3783 290.66C82.3783 290.785 82.3783 290.909 82.3339 291.024C82.2972 291.175 82.2497 291.324 82.192 291.468C82.192 291.566 82.1299 291.663 82.0945 291.752C82.0242 291.89 81.941 292.021 81.8461 292.143C81.8461 292.205 81.7663 292.276 81.7219 292.329C81.5789 292.49 81.4113 292.628 81.2253 292.737L83.2918 291.539C83.4778 291.43 83.6454 291.292 83.7885 291.131C83.8328 291.078 83.8683 291.007 83.9127 290.944C84.0072 290.825 84.0903 290.698 84.161 290.563C84.161 290.474 84.2231 290.376 84.2586 290.279C84.3164 290.135 84.3638 289.986 84.4005 289.835C84.4005 289.72 84.4005 289.596 84.4448 289.471C84.4892 289.347 84.4892 289.205 84.498 289.063C84.5069 288.921 84.498 288.939 84.498 288.877C84.498 288.877 84.498 288.788 84.498 288.752C84.498 288.717 84.5247 288.602 84.5247 288.557Z" fill="#0B3866" fill-opacity="0.15"/>
<path d="M84.5601 274.225V269.246L84.5158 269.193L84.2497 268.882L83.9836 268.616L83.8949 268.536L83.6821 268.341L83.5313 268.208H83.4781L83.345 268.101L82.9814 267.844L82.7597 267.702L82.6532 267.64L63.797 257.718H63.7438L63.6374 257.656L63.531 257.603L63.4334 257.558H63.0875L62.9722 257.363H60.9323L58.8657 258.561C59.0589 258.451 59.2686 258.373 59.4866 258.33C59.7218 258.296 59.9608 258.296 60.1961 258.33C60.7713 258.396 61.3252 258.587 61.8192 258.889L78.4403 268.492C78.7299 268.662 79.0057 268.855 79.2651 269.069C79.5379 269.291 79.7957 269.531 80.0368 269.787C80.5431 270.327 80.9865 270.923 81.3583 271.562C81.5453 271.887 81.714 272.222 81.8639 272.565C82.0111 272.901 82.1385 273.244 82.2452 273.595C82.3483 273.935 82.4283 274.282 82.4847 274.633C82.5383 274.968 82.565 275.306 82.5645 275.645C82.5598 275.844 82.542 276.042 82.5113 276.239C82.5113 276.364 82.5113 276.488 82.467 276.603C82.4303 276.754 82.3829 276.903 82.3251 277.047C82.3251 277.136 82.263 277.242 82.2275 277.331C82.1568 277.466 82.0736 277.593 81.9792 277.712C81.9792 277.775 81.8993 277.846 81.855 277.899C81.7146 278.059 81.55 278.197 81.3672 278.307L83.3716 277.162C83.5545 277.052 83.7191 276.915 83.8595 276.754C83.9038 276.701 83.9393 276.63 83.9836 276.568C84.0782 276.449 84.1613 276.321 84.232 276.186C84.232 276.097 84.2941 276 84.3295 275.902C84.3874 275.758 84.4348 275.609 84.4714 275.458C84.4714 275.343 84.4714 275.219 84.5158 275.094C84.5601 274.97 84.5601 274.828 84.569 274.686C84.5779 274.544 84.569 274.562 84.569 274.5C84.569 274.5 84.569 274.411 84.569 274.367C84.569 274.322 84.5601 274.225 84.5601 274.225Z" fill="#0B3866" fill-opacity="0.15"/>
<path d="M84.6045 258.676V253.698L84.5601 253.645L84.2941 253.334L84.2497 253.281L84.0368 253.068L83.9482 252.988L83.7353 252.793L83.5845 252.66H83.5313L83.3983 252.553L83.0346 252.296L82.8129 252.154L82.7064 252.092L63.8591 242.179H63.8059L63.6995 242.117L63.5931 242.063L63.4955 242.019H60.9766L58.91 243.217C59.1031 243.107 59.3128 243.029 59.5309 242.986C59.7662 242.952 60.0052 242.952 60.2404 242.986C60.8187 243.051 61.3758 243.242 61.8724 243.545L78.4935 253.148C78.7829 253.315 79.0587 253.505 79.3184 253.716C79.5911 253.938 79.8489 254.178 80.09 254.434C80.5963 254.974 81.0397 255.569 81.4115 256.209C81.7834 256.851 82.0809 257.533 82.2985 258.242C82.3778 258.537 82.44 258.836 82.4847 259.138C82.5385 259.472 82.5652 259.811 82.5645 260.15C82.5601 260.352 82.5423 260.553 82.5113 260.753C82.5113 260.877 82.5113 261.002 82.467 261.117C82.4303 261.268 82.3828 261.416 82.3251 261.561C82.3251 261.649 82.263 261.756 82.2275 261.845C82.1574 261.982 82.0742 262.113 81.9792 262.235C81.9792 262.297 81.8993 262.368 81.855 262.422C81.712 262.583 81.5444 262.721 81.3583 262.83L83.3716 261.632C83.5576 261.523 83.7253 261.385 83.8683 261.223C83.9127 261.17 83.9482 261.099 83.9925 261.037C84.0875 260.915 84.1707 260.784 84.2408 260.647C84.2408 260.558 84.3029 260.46 84.3384 260.363C84.3961 260.218 84.4436 260.07 84.4803 259.919C84.4803 259.804 84.4803 259.679 84.5247 259.555C84.569 259.431 84.569 259.289 84.5779 259.147C84.5867 259.005 84.5779 259.023 84.5779 258.96C84.5779 258.96 84.5779 258.872 84.5779 258.836C84.5779 258.801 84.6045 258.721 84.6045 258.676Z" fill="#0B3866" fill-opacity="0.15"/>
<path d="M84.6488 244.344V239.383L84.6045 239.33L84.3384 239.019L84.0723 238.753L83.9836 238.673L83.7708 238.478L83.62 238.345H83.5668L83.4337 238.238L83.0701 237.981L82.8484 237.839L82.7419 237.777L63.8591 227.846H63.8059L63.6906 227.784L63.5842 227.731L63.4866 227.686H61.0121L58.9455 228.884C59.1386 228.774 59.3483 228.696 59.5664 228.654C59.8017 228.62 60.0406 228.62 60.2759 228.654C60.5449 228.678 60.8099 228.734 61.0653 228.822C61.3735 228.922 61.6707 229.053 61.9522 229.213L78.5733 238.815C78.8627 238.983 79.1385 239.172 79.3982 239.383C79.671 239.605 79.9287 239.846 80.1698 240.102C80.421 240.383 80.655 240.68 80.8705 240.989C81.0916 241.291 81.2959 241.606 81.4825 241.93C81.6694 242.255 81.8382 242.59 81.988 242.933C82.1354 243.268 82.2628 243.612 82.3694 243.962C82.4721 244.3 82.5521 244.644 82.6089 244.992C82.6622 245.323 82.6889 245.659 82.6887 245.995C82.6839 246.194 82.6662 246.392 82.6355 246.589C82.6355 246.714 82.6355 246.838 82.5912 246.953C82.5545 247.104 82.5071 247.253 82.4492 247.397C82.4492 247.486 82.3872 247.592 82.3517 247.681C82.281 247.816 82.1979 247.943 82.1033 248.062C82.1033 248.125 82.0235 248.196 81.9792 248.249C81.8388 248.41 81.6742 248.547 81.4914 248.657L83.5579 247.459C83.7408 247.349 83.9053 247.211 84.0457 247.051C84.0989 246.998 84.1255 246.927 84.1699 246.864C84.2644 246.745 84.3476 246.617 84.4182 246.483C84.4182 246.394 84.4803 246.296 84.5158 246.199C84.5736 246.054 84.621 245.906 84.6577 245.755C84.6577 245.64 84.6577 245.515 84.702 245.391C84.7464 245.267 84.7464 245.134 84.7553 244.983C84.7641 244.832 84.7553 244.859 84.7553 244.797C84.7553 244.797 84.7553 244.708 84.7553 244.672C84.7553 244.637 84.6488 244.388 84.6488 244.344Z" fill="#0B3866" fill-opacity="0.15"/>
<path d="M84.6932 228.805V223.773L84.6488 223.719L84.3827 223.409L84.1167 223.143L84.028 223.063L83.8151 222.868L83.6643 222.734H83.6111L83.4781 222.628L83.1144 222.371L82.8927 222.229L82.7863 222.166L63.9212 212.307H63.868L63.7616 212.245L63.6551 212.191L63.5576 212.147H61.0653L58.9987 213.345C59.4027 213.117 59.8679 213.021 60.3291 213.07C60.9074 213.135 61.4645 213.326 61.9611 213.629L78.4846 223.107C78.774 223.275 79.0498 223.464 79.3095 223.675C79.5823 223.897 79.84 224.138 80.0811 224.394C80.3354 224.675 80.5724 224.971 80.7907 225.281C81.0118 225.583 81.2161 225.897 81.4026 226.222C81.5895 226.547 81.7583 226.882 81.9082 227.225C82.0555 227.56 82.1828 227.904 82.2896 228.254C82.3926 228.595 82.4726 228.942 82.5291 229.293C82.5827 229.627 82.6094 229.966 82.6089 230.304C82.6041 230.504 82.5863 230.702 82.5557 230.899C82.5557 231.023 82.5557 231.147 82.5113 231.263C82.4746 231.414 82.4272 231.562 82.3694 231.707C82.3694 231.795 82.3073 231.902 82.2718 231.991C82.2012 232.125 82.118 232.253 82.0235 232.372C81.9792 232.434 81.9437 232.505 81.8905 232.559C81.7501 232.719 81.5855 232.857 81.4026 232.967L83.4692 231.769C83.6521 231.659 83.8166 231.521 83.957 231.361C84.0014 231.307 84.0368 231.236 84.0812 231.174C84.1758 231.055 84.2589 230.927 84.3295 230.793C84.3295 230.704 84.3916 230.606 84.4271 230.509C84.4849 230.364 84.5323 230.216 84.569 230.065C84.569 229.949 84.569 229.825 84.6133 229.701C84.6577 229.577 84.6577 229.444 84.6666 229.293C84.6754 229.142 84.6666 229.168 84.6666 229.106C84.6666 229.106 84.6666 229.018 84.6666 228.973C84.6666 228.929 84.6932 228.849 84.6932 228.805Z" fill="#0B3866" fill-opacity="0.15"/>
<path d="M84.7375 213.265V208.18L84.6932 208.127L84.4271 207.816L84.161 207.55L84.0723 207.47L83.8595 207.275L83.7087 207.142H83.6555L83.5224 207.035L83.1588 206.778L82.937 206.636L82.8306 206.574L63.9656 196.767H63.9123L63.797 196.705L63.6906 196.652L63.593 196.608H61.1629L59.0963 197.806C59.2894 197.696 59.4991 197.618 59.7172 197.575C59.9524 197.541 60.1914 197.541 60.4267 197.575C60.6956 197.599 60.9607 197.656 61.2161 197.744C61.5243 197.843 61.8215 197.974 62.103 198.134L78.529 207.577C78.8183 207.744 79.0941 207.934 79.3538 208.145C79.6265 208.367 79.8843 208.607 80.1255 208.863C80.3797 209.145 80.6167 209.441 80.835 209.751C81.0562 210.053 81.2605 210.367 81.447 210.692C81.6339 211.016 81.8027 211.351 81.9525 211.694C82.0998 212.03 82.2271 212.373 82.3339 212.724C82.4367 213.061 82.5167 213.405 82.5734 213.753C82.6268 214.085 82.6534 214.42 82.6532 214.756C82.6487 214.958 82.631 215.16 82.6 215.36C82.6 215.484 82.6 215.608 82.5557 215.723C82.519 215.875 82.4715 216.023 82.4137 216.167C82.4137 216.256 82.3517 216.362 82.3162 216.442C82.246 216.58 82.1628 216.711 82.0678 216.833C82.0678 216.895 81.988 216.966 81.9437 217.019C81.8006 217.181 81.633 217.318 81.447 217.427L83.5135 216.229C83.6995 216.12 83.8672 215.982 84.0102 215.821C84.0546 215.768 84.0901 215.697 84.1344 215.635C84.2294 215.513 84.3126 215.382 84.3827 215.244C84.3827 215.155 84.4448 215.058 84.4803 214.96C84.5382 214.816 84.5856 214.668 84.6222 214.517C84.6222 214.401 84.6222 214.277 84.6666 214.153C84.7109 214.028 84.7109 213.886 84.7198 213.744C84.7286 213.602 84.7198 213.62 84.7198 213.558C84.7198 213.558 84.7198 213.469 84.7198 213.434C84.7198 213.398 84.7375 213.31 84.7375 213.265Z" fill="#0B3866" fill-opacity="0.15"/>
<path d="M91.0347 196.554V191.576L90.9904 191.522L90.7243 191.212L90.68 191.159L90.4671 190.946L90.3784 190.866L90.1656 190.671L90.0148 190.537H89.9616L89.8285 190.431L89.4649 190.174L89.2431 190.032L89.1367 189.969L44.2757 165.067H44.2225L44.1072 165.005L44.0007 164.952L43.9032 164.908H41.4109L39.2468 165.955C39.4399 165.845 39.6496 165.767 39.8676 165.724C40.1029 165.69 40.3419 165.69 40.5772 165.724C40.8461 165.748 41.1112 165.805 41.3665 165.893C41.6747 165.992 41.9719 166.123 42.2535 166.283L84.8262 190.901C85.1156 191.069 85.3914 191.259 85.6511 191.469C85.9238 191.692 86.1816 191.932 86.4227 192.188C86.6739 192.469 86.9079 192.766 87.1234 193.076C87.3445 193.378 87.5488 193.692 87.7354 194.016C88.1072 194.658 88.4048 195.34 88.6223 196.049C88.7255 196.389 88.8055 196.736 88.8618 197.087C88.9151 197.418 88.9418 197.754 88.9416 198.09C88.9371 198.292 88.9193 198.493 88.8884 198.693C88.8884 198.817 88.8884 198.942 88.844 199.057C88.8073 199.208 88.7599 199.356 88.7021 199.501C88.7021 199.598 88.64 199.696 88.6046 199.785C88.5339 199.919 88.4507 200.047 88.3562 200.166C88.3119 200.228 88.2764 200.299 88.232 200.353C88.091 200.51 87.9264 200.645 87.7442 200.752L89.8108 199.554C89.9969 199.445 90.1645 199.307 90.3075 199.146C90.3607 199.092 90.3873 199.021 90.4316 198.959C90.5261 198.84 90.6092 198.712 90.68 198.578C90.68 198.489 90.7421 198.391 90.7775 198.294C90.8353 198.149 90.8828 198.001 90.9194 197.85C90.9194 197.735 90.9194 197.61 90.9638 197.486C91.0081 197.362 91.0081 197.22 91.017 197.078C91.0259 196.936 91.017 196.954 91.017 196.892C91.017 196.892 91.017 196.803 91.017 196.767C91.017 196.732 91.0347 196.599 91.0347 196.554Z" fill="#0B3866" fill-opacity="0.15"/>
<path d="M82.4847 172.078C82.5878 172.419 82.6678 172.765 82.7242 173.117C82.7775 173.448 82.8042 173.784 82.804 174.119C82.7995 174.321 82.7818 174.523 82.7508 174.723C82.7508 174.847 82.7508 174.971 82.7065 175.087C82.6697 175.238 82.6223 175.386 82.5645 175.53C82.5645 175.628 82.5025 175.726 82.467 175.814C82.3963 175.949 82.3131 176.077 82.2186 176.196C82.1743 176.258 82.1388 176.329 82.0945 176.382C81.9514 176.544 81.7838 176.682 81.5978 176.791L83.6643 175.593C83.8503 175.483 84.018 175.346 84.161 175.184C84.2054 175.131 84.2408 175.06 84.2852 174.998C84.3801 174.876 84.4633 174.745 84.5335 174.607C84.5335 174.519 84.5956 174.421 84.6311 174.332C84.6889 174.188 84.7363 174.04 84.773 173.889C84.773 173.773 84.773 173.649 84.8173 173.525C84.8617 173.401 84.8617 173.259 84.8706 173.108C84.8794 172.957 84.8706 172.983 84.8706 172.921C84.8706 172.921 84.8706 172.833 84.8706 172.797C84.8706 172.762 84.8706 172.708 84.8706 172.673V167.694L84.8262 167.641L84.5601 167.33L84.5158 167.277L84.4448 167.206L82.1299 166.842L82.059 166.771L81.9703 166.691L81.7574 166.496L81.6067 166.363H81.5534L81.4204 166.256L81.0568 165.999L80.835 165.857L80.7286 165.795L64.0809 156.139H64.0276L63.9212 156.077L63.8148 156.024L63.7172 155.98H61.1983L59.052 157.08C59.245 156.97 59.4547 156.892 59.6728 156.849C59.9081 156.815 60.1471 156.815 60.3824 156.849C60.6513 156.874 60.9163 156.93 61.1717 157.018C61.4799 157.118 61.7771 157.248 62.0587 157.409L78.6798 167.011C78.9691 167.178 79.2449 167.368 79.5046 167.579C79.7774 167.801 80.0352 168.041 80.2763 168.298C80.5275 168.579 80.7615 168.875 80.9769 169.185C81.4197 169.79 81.7945 170.442 82.0945 171.129C82.242 171.438 82.3723 171.755 82.4847 172.078Z" fill="#0B3866" fill-opacity="0.15"/>
<path d="M84.8972 158.58C84.8972 158.58 84.8972 158.491 84.8972 158.456C84.8972 158.42 84.8972 158.367 84.8972 158.331V153.353L84.8528 153.3L84.5867 152.989L84.5424 152.936L84.3295 152.723L84.2408 152.643L84.028 152.448L83.8772 152.315H83.824L83.6909 152.208L83.3273 151.951L83.1056 151.809L80.7108 151.4L64.1252 141.798H64.072L63.9567 141.736L63.8503 141.683L63.7527 141.638H61.2604L59.1939 142.836C59.3869 142.726 59.5966 142.648 59.8147 142.606C60.05 142.571 60.289 142.571 60.5243 142.606C60.7932 142.63 61.0583 142.687 61.3136 142.774C61.6218 142.874 61.919 143.005 62.2006 143.165L78.6798 152.643C78.9692 152.81 79.245 153 79.5046 153.211C79.7743 153.433 80.0291 153.674 80.2674 153.93C80.5186 154.211 80.7526 154.507 80.9681 154.817C81.1893 155.119 81.3936 155.433 81.58 155.758C82.3247 156.96 82.7547 158.33 82.8306 159.743C82.8259 159.942 82.8081 160.14 82.7774 160.337C82.7774 160.461 82.7774 160.586 82.7331 160.701C82.6964 160.852 82.649 161 82.5911 161.145C82.5911 161.233 82.5291 161.34 82.4936 161.429C82.423 161.563 82.3398 161.691 82.2452 161.81C82.2452 161.872 82.1654 161.943 82.1211 161.997C81.97 162.16 81.7932 162.298 81.5978 162.405L83.6643 161.207C83.8472 161.097 84.0118 160.959 84.1521 160.799C84.2054 160.745 84.232 160.674 84.2763 160.612C84.3709 160.493 84.454 160.365 84.5247 160.231C84.5247 160.142 84.5867 160.044 84.6222 159.947C84.68 159.802 84.7275 159.654 84.7641 159.503C84.7641 159.388 84.7641 159.263 84.8085 159.139C84.8528 159.015 84.8528 158.882 84.8617 158.731C84.8706 158.58 84.8972 158.642 84.8972 158.58Z" fill="#0B3866" fill-opacity="0.15"/>
<path d="M84.9415 143.049C84.9415 143.049 84.9415 142.961 84.9415 142.916C84.9415 142.872 84.9415 142.828 84.9415 142.783V137.698L84.8972 137.645L84.6311 137.334L84.365 137.068L84.2763 136.988L84.0634 136.793L83.9127 136.66H83.8595L83.7264 136.553L83.3628 136.296L83.141 136.154L83.0346 136.092L64.1696 126.259H64.1163L64.0099 126.197L63.8591 126.108L63.7616 126.063H61.3048L59.2382 127.262C59.4313 127.151 59.641 127.074 59.8591 127.031C60.0943 126.997 60.3333 126.997 60.5686 127.031C61.1438 127.097 61.6977 127.288 62.1917 127.59L78.8128 137.192C79.1022 137.36 79.378 137.55 79.6377 137.76C79.9104 137.983 80.1682 138.223 80.4093 138.479C80.6605 138.76 80.8945 139.057 81.11 139.366C81.3312 139.669 81.5355 139.983 81.7219 140.307C81.9089 140.632 82.0777 140.967 82.2275 141.31C82.3748 141.645 82.5022 141.989 82.6089 142.339C82.7119 142.68 82.7919 143.027 82.8484 143.378C82.902 143.712 82.9287 144.051 82.9282 144.39C82.9234 144.589 82.9056 144.787 82.875 144.984C82.875 145.108 82.875 145.233 82.8306 145.348C82.794 145.499 82.7466 145.647 82.6887 145.792C82.6887 145.88 82.6266 145.987 82.5911 146.067C82.5204 146.201 82.4373 146.329 82.3428 146.448C82.3428 146.511 82.263 146.582 82.2186 146.635C82.0783 146.795 81.9137 146.933 81.7308 147.043L83.7974 145.845C83.9802 145.735 84.1448 145.597 84.2852 145.437C84.3384 145.383 84.365 145.312 84.4094 145.25C84.504 145.131 84.5871 145.003 84.6577 144.869C84.6577 144.78 84.7198 144.682 84.7553 144.585C84.8131 144.44 84.8605 144.292 84.8972 144.141C84.8972 144.026 84.8972 143.901 84.9415 143.777C84.9859 143.653 84.9859 143.511 84.9947 143.369C85.0036 143.227 84.9415 143.112 84.9415 143.049Z" fill="#0B3866" fill-opacity="0.15"/>
<path d="M84.9859 127.51C84.9859 127.51 84.9859 127.421 84.9859 127.386C84.9859 127.35 84.9859 127.297 84.9859 127.262V122.194L84.9415 122.141L84.6754 121.83L84.6311 121.777L84.4182 121.564L84.3295 121.484L84.1167 121.289L83.9659 121.156H83.9127L83.7796 121.049L83.416 120.792L83.1943 120.65L83.0878 120.588L64.2139 110.719H64.1607L64.0543 110.657L63.9478 110.604L63.8503 110.56H61.3491L59.2826 111.758C59.4757 111.648 59.6854 111.57 59.9034 111.527C60.1387 111.493 60.3777 111.493 60.613 111.527C60.8819 111.551 61.147 111.608 61.4023 111.696C61.7106 111.795 62.0078 111.926 62.2893 112.086L78.9104 121.688C79.1997 121.856 79.4755 122.046 79.7352 122.256C80.008 122.479 80.2658 122.719 80.5069 122.975C80.7581 123.257 80.992 123.553 81.2075 123.863C81.4287 124.165 81.633 124.479 81.8195 124.803C82.0064 125.128 82.1752 125.463 82.3251 125.806C82.4724 126.141 82.5997 126.485 82.7064 126.836C82.8092 127.173 82.8892 127.517 82.9459 127.865C82.9993 128.197 83.026 128.532 83.0257 128.868C83.0213 129.07 83.0035 129.272 82.9725 129.471C82.9725 129.596 82.9725 129.72 82.9282 129.835C82.8914 129.986 82.844 130.135 82.7863 130.279C82.7863 130.368 82.7242 130.474 82.6887 130.563C82.618 130.698 82.5349 130.825 82.4404 130.945C82.4404 131.007 82.3605 131.078 82.3162 131.131C82.1731 131.292 82.0055 131.43 81.8195 131.539L83.8861 130.341C84.0721 130.232 84.2397 130.094 84.3827 129.933C84.4271 129.88 84.4626 129.809 84.5069 129.746C84.602 129.625 84.6851 129.494 84.7553 129.356C84.7553 129.267 84.8173 129.17 84.8528 129.081C84.9106 128.936 84.958 128.788 84.9947 128.637C84.9947 128.522 84.9947 128.397 85.0391 128.273C85.0834 128.149 85.0834 128.007 85.0923 127.856C85.1012 127.705 84.9859 127.572 84.9859 127.51Z" fill="#0B3866" fill-opacity="0.15"/>
<path d="M40.1248 77.2887C40.3601 77.2545 40.5991 77.2545 40.8344 77.2887C41.1033 77.3129 41.3684 77.3696 41.6237 77.4574C41.9319 77.5568 42.2291 77.6877 42.5107 77.8478L97.5625 109.628C97.8519 109.795 98.1277 109.985 98.3874 110.196C98.6602 110.418 98.9179 110.658 99.159 110.915C99.4103 111.196 99.6443 111.492 99.8597 111.802C100.081 112.104 100.285 112.418 100.472 112.743C100.659 113.067 100.827 113.402 100.977 113.746C101.125 114.081 101.252 114.425 101.359 114.775C101.462 115.115 101.542 115.462 101.598 115.813C101.651 116.145 101.678 116.48 101.678 116.816C101.673 117.015 101.655 117.214 101.625 117.411C101.625 117.535 101.625 117.659 101.58 117.775C101.544 117.926 101.496 118.074 101.438 118.218C101.438 118.316 101.376 118.414 101.341 118.502C101.27 118.637 101.187 118.765 101.093 118.884C101.093 118.946 101.013 119.017 100.968 119.07C100.828 119.231 100.663 119.369 100.481 119.479L102.547 118.28C102.73 118.171 102.895 118.033 103.035 117.872C103.079 117.819 103.115 117.748 103.159 117.686C103.254 117.567 103.337 117.439 103.407 117.304C103.407 117.216 103.47 117.118 103.505 117.02C103.563 116.876 103.61 116.728 103.647 116.577C103.647 116.461 103.647 116.337 103.691 116.213C103.736 116.088 103.736 115.946 103.744 115.804C103.753 115.662 103.744 115.68 103.744 115.618C103.744 115.618 103.744 115.529 103.744 115.494C103.744 115.458 103.744 115.405 103.744 115.37V110.284L103.7 110.231L103.434 109.921L103.39 109.867L103.177 109.654L103.088 109.575L102.875 109.379L102.724 109.246H102.671L102.538 109.14L102.175 108.882L101.953 108.74L101.846 108.678L44.524 76.6054H44.4708L44.3466 76.5167L44.2402 76.4634L44.1426 76.419H41.6858L39.6193 77.6171C39.8124 77.5072 40.0221 77.4292 40.2401 77.3864L40.1248 77.2887Z" fill="#0B3866" fill-opacity="0.15"/>
<path d="M40.178 58.164C40.4133 58.1298 40.6523 58.1298 40.8876 58.164C41.1565 58.1882 41.4216 58.2448 41.677 58.3326C41.9852 58.4321 42.2824 58.5629 42.5639 58.7231L83.0967 82.1431C83.3861 82.3105 83.6619 82.5004 83.9216 82.7111C84.1913 82.9337 84.4461 83.1739 84.6843 83.43C84.9355 83.7114 85.1695 84.0077 85.385 84.3174C85.5982 84.5997 85.7965 84.893 85.9792 85.196C86.1661 85.5207 86.3349 85.8555 86.4848 86.1988C86.632 86.5342 86.7594 86.8779 86.8662 87.2283C86.9688 87.5657 87.0488 87.9096 87.1056 88.2577C87.159 88.5893 87.1857 88.9247 87.1855 89.2606C87.181 89.4627 87.1632 89.6643 87.1322 89.864C87.1322 89.9883 87.1322 90.1125 87.0879 90.2279C87.0512 90.379 87.0038 90.5273 86.946 90.6716C86.946 90.7692 86.8839 90.8669 86.8484 90.9556C86.7778 91.0903 86.6946 91.2181 86.6001 91.3372C86.5557 91.3993 86.5203 91.4703 86.4759 91.5236C86.335 91.6812 86.1704 91.8159 85.9881 91.9229L88.0547 90.7249C88.2407 90.6158 88.4083 90.478 88.5513 90.3166C88.5957 90.2634 88.6312 90.1924 88.6755 90.1303C88.77 90.0111 88.8532 89.8834 88.9238 89.7487C88.9238 89.6599 88.9859 89.5623 89.0214 89.4647C89.0792 89.3203 89.1266 89.172 89.1633 89.0209C89.1633 88.9056 89.1633 88.7813 89.2077 88.6571C89.252 88.5328 89.252 88.3908 89.2609 88.2489C89.2697 88.1069 89.2609 88.1246 89.2609 88.0625C89.2609 88.0625 89.2609 87.9737 89.2609 87.9382C89.2609 87.9027 89.2609 87.8495 89.2609 87.814V82.8797L87.0081 82.5336L86.9194 82.4626V82.4005L86.7597 82.2141L86.4936 81.9479L86.405 81.868L86.2985 81.7704L86.1655 81.6462L86.0324 81.5308H85.9792L85.8462 81.4243L85.4825 81.1669L85.2697 81.0249L85.1455 80.9007L44.5772 57.4895H44.524L44.4176 57.4274L44.3466 57.3387L44.2491 57.2943H41.6858L39.5572 58.4036C39.7503 58.2937 39.96 58.2157 40.178 58.1729V58.164Z" fill="#0B3866" fill-opacity="0.15"/>
<path d="M149.005 325.786V320.71L148.96 320.657L148.694 320.346L148.428 320.08L148.339 320L148.127 319.805L147.976 319.672H147.923L147.79 319.565L147.426 319.308L147.204 319.166L147.098 319.104L100.135 293.083H100.081L99.9661 293.021L99.8597 292.968L99.7621 292.923H97.2965L95.2299 294.122C95.4231 294.012 95.6327 293.934 95.8508 293.891C96.086 293.857 96.325 293.857 96.5603 293.891C96.8293 293.915 97.0944 293.971 97.3497 294.059C97.6579 294.159 97.9551 294.29 98.2366 294.45L142.796 320.098C143.085 320.265 143.361 320.455 143.621 320.665C143.894 320.888 144.151 321.128 144.393 321.384C144.644 321.666 144.878 321.962 145.093 322.272C145.314 322.574 145.519 322.888 145.705 323.212C146.452 324.444 146.87 325.846 146.92 327.286C146.916 327.488 146.898 327.69 146.867 327.889C146.867 328.014 146.867 328.138 146.823 328.253C146.786 328.404 146.739 328.553 146.681 328.697C146.681 328.795 146.619 328.892 146.583 328.981C146.513 329.119 146.43 329.249 146.335 329.371C146.335 329.434 146.255 329.505 146.211 329.558C146.068 329.719 145.9 329.857 145.714 329.966L147.781 328.768C147.967 328.659 148.134 328.521 148.277 328.36C148.322 328.306 148.357 328.236 148.402 328.173C148.496 328.054 148.579 327.926 148.65 327.792C148.65 327.703 148.712 327.605 148.747 327.508C148.805 327.363 148.853 327.215 148.889 327.064C148.889 326.949 148.889 326.824 148.934 326.7C148.978 326.576 148.978 326.434 148.987 326.292C148.996 326.15 148.987 326.168 148.987 326.106C148.987 326.106 148.987 326.017 148.987 325.981C148.987 325.946 149.005 325.83 149.005 325.786Z" fill="#0B3866" fill-opacity="0.15"/>
<path d="M149.005 311.445V306.457L148.96 306.404L148.694 306.093L148.428 305.827L148.339 305.747L148.127 305.552L147.976 305.419H147.923L147.79 305.312L147.426 305.055L147.204 304.913L147.098 304.851L102.405 279.035H102.352L102.237 278.973L102.13 278.919L102.033 278.875H99.567L97.5005 280.073C97.6935 279.963 97.9032 279.885 98.1213 279.842C98.3566 279.808 98.5956 279.808 98.8309 279.842C99.4061 279.908 99.96 280.099 100.454 280.401L142.796 305.747C143.086 305.918 143.362 306.11 143.621 306.324C143.894 306.546 144.151 306.787 144.393 307.043C144.899 307.583 145.342 308.178 145.714 308.818C146.087 309.462 146.384 310.147 146.601 310.859C146.704 311.199 146.784 311.546 146.841 311.897C146.894 312.232 146.921 312.57 146.92 312.909C146.916 313.108 146.898 313.307 146.867 313.504C146.867 313.628 146.867 313.752 146.823 313.868C146.786 314.019 146.739 314.167 146.681 314.311C146.681 314.4 146.619 314.507 146.583 314.586C146.513 314.721 146.43 314.849 146.335 314.968C146.335 315.03 146.255 315.101 146.211 315.154C146.07 315.315 145.906 315.453 145.723 315.563L147.79 314.365C147.972 314.255 148.137 314.117 148.277 313.956C148.322 313.903 148.357 313.832 148.402 313.77C148.496 313.651 148.579 313.523 148.65 313.388C148.65 313.3 148.712 313.202 148.747 313.104C148.805 312.96 148.853 312.812 148.889 312.661C148.889 312.545 148.889 312.421 148.934 312.297C148.978 312.173 148.978 312.031 148.987 311.889C148.996 311.747 148.987 311.764 148.987 311.702C148.987 311.702 148.987 311.613 148.987 311.569C148.987 311.525 149.005 311.498 149.005 311.445Z" fill="#0B3866" fill-opacity="0.15"/>
<path d="M142.636 295.861C142.822 295.752 142.99 295.614 143.133 295.453C143.177 295.4 143.213 295.329 143.257 295.266C143.352 295.147 143.435 295.019 143.506 294.885C143.506 294.796 143.568 294.698 143.603 294.601C143.661 294.456 143.708 294.308 143.745 294.157C143.745 294.042 143.745 293.917 143.789 293.793C143.834 293.669 143.834 293.527 143.843 293.376C143.852 293.225 143.843 293.252 143.843 293.19C143.843 293.19 143.843 293.101 143.843 293.066C143.843 293.03 143.843 292.977 143.843 292.932V287.812L143.798 287.758L143.532 287.448L143.266 287.182L143.177 287.102L142.965 286.907L142.814 286.773H142.761L142.628 286.667L142.264 286.41L142.051 286.268L141.945 286.205L100.223 263.202H100.17L100.055 263.14L99.9484 263.087L99.8508 263.043H97.4206L95.3541 264.241C95.5472 264.131 95.7569 264.053 95.9749 264.01C96.2102 263.976 96.4492 263.976 96.6845 264.01C96.9535 264.034 97.2185 264.091 97.4739 264.179C97.782 264.278 98.0792 264.409 98.3608 264.569L137.856 287.386C138.145 287.553 138.421 287.743 138.681 287.954C138.95 288.176 139.205 288.417 139.443 288.673C139.695 288.954 139.929 289.25 140.144 289.56C140.365 289.862 140.57 290.176 140.756 290.501C140.943 290.825 141.112 291.16 141.262 291.504C141.409 291.839 141.536 292.183 141.643 292.533C141.746 292.87 141.826 293.214 141.883 293.562C141.936 293.894 141.963 294.229 141.962 294.565C141.958 294.767 141.94 294.969 141.909 295.169C141.909 295.293 141.909 295.417 141.865 295.533C141.828 295.684 141.781 295.832 141.723 295.976C141.723 296.074 141.661 296.172 141.625 296.26C141.555 296.395 141.471 296.523 141.377 296.642C141.333 296.704 141.297 296.775 141.253 296.828C141.112 296.986 140.947 297.12 140.765 297.228L142.636 295.861Z" fill="#0B3866" fill-opacity="0.15"/>
<path d="M191.577 350.404V345.434L191.533 345.381L191.267 345.071L191.001 344.804L190.912 344.724L190.699 344.529L190.549 344.396H190.495L190.362 344.29L189.999 344.032L189.786 343.89L189.679 343.828L164.73 329.416H164.677L164.57 329.354L164.464 329.3L164.366 329.256H159.648L157.581 330.454C157.774 330.344 157.984 330.266 158.202 330.223C158.702 330.134 159.216 330.18 159.692 330.357C159.985 330.456 160.267 330.583 160.535 330.738L185.369 344.716C185.658 344.883 185.934 345.073 186.194 345.284C186.463 345.506 186.718 345.746 186.956 346.002C187.208 346.284 187.442 346.58 187.657 346.89C187.878 347.192 188.083 347.506 188.269 347.831C188.641 348.472 188.939 349.154 189.156 349.863C189.259 350.2 189.339 350.544 189.396 350.892C189.449 351.227 189.476 351.565 189.475 351.904C189.471 352.106 189.453 352.308 189.422 352.507C189.422 352.632 189.422 352.756 189.378 352.871C189.341 353.022 189.294 353.171 189.236 353.315C189.236 353.413 189.174 353.51 189.138 353.599C189.068 353.734 188.984 353.862 188.89 353.981C188.89 354.043 188.81 354.114 188.766 354.167C188.623 354.328 188.455 354.466 188.269 354.575L190.336 353.377C190.522 353.268 190.689 353.13 190.832 352.969C190.877 352.916 190.912 352.845 190.957 352.783C191.051 352.663 191.134 352.536 191.205 352.401C191.205 352.312 191.267 352.215 191.302 352.117C191.36 351.973 191.408 351.824 191.444 351.673C191.444 351.558 191.444 351.434 191.489 351.309C191.533 351.185 191.533 351.043 191.542 350.892C191.551 350.741 191.542 350.768 191.542 350.706C191.542 350.706 191.542 350.617 191.542 350.582C191.542 350.546 191.577 350.449 191.577 350.404Z" fill="#0B3866" fill-opacity="0.15"/>
<path d="M196.819 339.071V334.031L196.775 333.977L196.509 333.667L196.464 333.614L196.252 333.401L196.163 333.321L195.95 333.125L195.799 332.992H195.746L195.613 332.886L195.249 332.628L195.028 332.486L194.921 332.424L164.765 315.012H164.712L164.606 314.95L164.499 314.897L164.402 314.853H159.648L157.581 316.051C157.985 315.823 158.45 315.726 158.912 315.776C159.178 315.8 159.44 315.857 159.692 315.944C159.985 316.043 160.267 316.171 160.535 316.326L190.69 333.738C190.98 333.905 191.256 334.095 191.515 334.306C191.788 334.528 192.046 334.768 192.287 335.025C192.541 335.306 192.778 335.602 192.996 335.912C193.218 336.214 193.422 336.528 193.608 336.853C193.795 337.177 193.964 337.512 194.114 337.856C194.261 338.191 194.389 338.535 194.495 338.885C194.598 339.225 194.678 339.572 194.735 339.923C194.789 340.258 194.815 340.596 194.815 340.935C194.81 341.134 194.792 341.333 194.761 341.53C194.761 341.654 194.761 341.778 194.717 341.894C194.68 342.045 194.633 342.193 194.575 342.337C194.575 342.426 194.513 342.533 194.478 342.612C194.407 342.747 194.324 342.875 194.229 342.994C194.229 343.056 194.149 343.127 194.105 343.18C193.965 343.341 193.8 343.479 193.617 343.589L195.684 342.39C195.867 342.281 196.031 342.143 196.172 341.982C196.216 341.929 196.252 341.858 196.296 341.796C196.39 341.677 196.474 341.549 196.544 341.414C196.544 341.326 196.606 341.228 196.642 341.139C196.7 340.995 196.747 340.847 196.784 340.695C196.784 340.58 196.784 340.456 196.828 340.332C196.872 340.207 196.872 340.074 196.881 339.923C196.89 339.772 196.881 339.799 196.881 339.737C196.881 339.737 196.881 339.648 196.881 339.604C196.881 339.56 196.819 339.116 196.819 339.071Z" fill="#0B3866" fill-opacity="0.15"/>
<path d="M161.342 300.999C161.615 301.222 161.872 301.462 162.113 301.718C162.365 302 162.599 302.296 162.814 302.606C163.035 302.908 163.24 303.222 163.426 303.546C163.798 304.188 164.096 304.87 164.313 305.579C164.416 305.919 164.496 306.266 164.553 306.617C164.606 306.949 164.633 307.284 164.632 307.62C164.628 307.822 164.61 308.024 164.579 308.223C164.579 308.348 164.579 308.472 164.535 308.587C164.498 308.738 164.451 308.887 164.393 309.031C164.393 309.129 164.331 309.226 164.295 309.315C164.225 309.45 164.142 309.577 164.047 309.697C164.003 309.759 163.967 309.83 163.923 309.883C163.782 310.04 163.617 310.175 163.435 310.282L165.502 309.084C165.688 308.975 165.855 308.837 165.998 308.676C166.043 308.623 166.078 308.552 166.122 308.49C166.217 308.37 166.3 308.243 166.371 308.108C166.371 308.019 166.433 307.922 166.468 307.824C166.526 307.68 166.574 307.531 166.61 307.38C166.61 307.265 166.61 307.141 166.655 307.016C166.699 306.892 166.699 306.75 166.708 306.608C166.717 306.466 166.708 306.484 166.708 306.422C166.708 306.422 166.708 306.333 166.708 306.298C166.708 306.262 166.708 306.209 166.708 306.164V301.23L166.663 301.177L166.397 300.866L166.353 300.813L166.14 300.6L166.051 300.52L165.839 300.325L165.688 300.192H165.635L165.502 300.085L165.138 299.828L164.916 299.686L164.81 299.624L154.415 293.616H154.362L154.255 293.554L154.149 293.5L154.051 293.456H151.586L149.519 294.654C149.712 294.544 149.922 294.466 150.14 294.423C150.375 294.389 150.614 294.389 150.849 294.423C151.425 294.489 151.979 294.679 152.473 294.982L160.535 300.423C160.818 300.594 161.088 300.786 161.342 300.999Z" fill="#0B3866" fill-opacity="0.15"/>
<path d="M170.229 293.749C170.376 294.084 170.504 294.428 170.61 294.778C170.713 295.116 170.793 295.46 170.85 295.808C170.903 296.139 170.93 296.475 170.93 296.811C170.925 297.01 170.907 297.208 170.876 297.405C170.876 297.529 170.876 297.654 170.832 297.769C170.795 297.92 170.748 298.068 170.69 298.213C170.69 298.31 170.628 298.408 170.593 298.497C170.522 298.631 170.439 298.759 170.344 298.878C170.344 298.94 170.264 299.011 170.22 299.065C170.077 299.226 169.909 299.364 169.723 299.473L171.79 298.275C171.976 298.166 172.144 298.028 172.287 297.867C172.331 297.813 172.366 297.742 172.411 297.68C172.505 297.561 172.588 297.433 172.659 297.299C172.659 297.21 172.721 297.112 172.757 297.015C172.814 296.87 172.862 296.722 172.899 296.571C172.899 296.456 172.899 296.331 172.943 296.207C172.987 296.083 172.987 295.95 172.996 295.799C173.005 295.648 172.996 295.675 172.996 295.613C172.996 295.613 172.996 295.524 172.996 295.488C172.996 295.453 172.996 295.4 172.996 295.355V290.288L172.952 290.235L172.686 289.924L172.42 289.658L172.331 289.578L172.118 289.383L171.967 289.249H171.914L171.781 289.143L171.417 288.886L171.205 288.744L171.098 288.681L100.223 248.861H100.17L100.055 248.799L99.9484 248.746L99.8508 248.701H97.4206L95.3541 249.9C95.5472 249.789 95.7569 249.711 95.9749 249.669C96.2102 249.635 96.4492 249.635 96.6845 249.669C96.9535 249.693 97.2185 249.749 97.4739 249.837C97.7821 249.937 98.0793 250.068 98.3608 250.228L166.956 289.862C167.246 290.029 167.521 290.219 167.781 290.43C168.051 290.652 168.306 290.893 168.544 291.149C169.047 291.689 169.487 292.284 169.856 292.924C169.993 293.193 170.117 293.468 170.229 293.749Z" fill="#0B3866" fill-opacity="0.15"/>
<path d="M95.904 233.996C96.1393 233.962 96.3783 233.962 96.6135 233.996C96.8795 234.021 97.1415 234.078 97.394 234.165C97.687 234.267 97.9692 234.398 98.2366 234.555L126.299 250.769C126.589 250.937 126.864 251.126 127.124 251.337C127.394 251.56 127.649 251.8 127.887 252.056C128.138 252.337 128.372 252.634 128.587 252.943C128.809 253.245 129.013 253.56 129.199 253.884C129.386 254.209 129.555 254.544 129.705 254.887C129.852 255.222 129.98 255.566 130.086 255.916C130.189 256.257 130.269 256.604 130.326 256.955C130.379 257.289 130.406 257.628 130.406 257.967C130.401 258.166 130.383 258.364 130.352 258.561C130.352 258.685 130.352 258.81 130.308 258.925C130.271 259.076 130.224 259.224 130.166 259.369C130.166 259.466 130.104 259.564 130.069 259.653C129.998 259.787 129.915 259.915 129.82 260.034C129.82 260.096 129.74 260.167 129.696 260.221C129.553 260.382 129.385 260.52 129.199 260.629L131.266 259.431C131.452 259.322 131.62 259.184 131.763 259.023C131.807 258.969 131.842 258.898 131.887 258.836C131.981 258.717 132.064 258.589 132.135 258.455C132.135 258.366 132.197 258.268 132.233 258.171C132.291 258.026 132.338 257.878 132.375 257.727C132.375 257.612 132.375 257.487 132.419 257.363C132.463 257.239 132.463 257.106 132.472 256.955C132.481 256.804 132.472 256.831 132.472 256.768C132.472 256.768 132.472 256.68 132.472 256.635C132.472 256.591 132.472 256.547 132.472 256.502V251.426L132.428 251.373L132.162 251.062L131.896 250.796L131.807 250.716L131.594 250.521L131.443 250.388H131.39L131.257 250.281L130.893 250.024L130.681 249.882L130.574 249.82L102.512 233.606H102.458L102.343 233.544L102.237 233.49L102.139 233.446H99.6735L97.6069 234.644C97.2923 234.676 96.9747 234.633 96.6792 234.521C96.3836 234.409 96.1182 234.229 95.904 233.996Z" fill="#0B3866" fill-opacity="0.15"/>
<path d="M115.612 231.928C115.714 232.266 115.794 232.61 115.851 232.958C115.905 233.292 115.932 233.631 115.931 233.97C115.926 234.172 115.909 234.373 115.878 234.573C115.878 234.697 115.878 234.822 115.833 234.937C115.797 235.088 115.749 235.236 115.691 235.381C115.691 235.478 115.629 235.576 115.594 235.665C115.523 235.799 115.44 235.927 115.346 236.046C115.301 236.108 115.266 236.179 115.221 236.233C115.078 236.394 114.911 236.532 114.725 236.641L116.791 235.443C116.977 235.334 117.145 235.196 117.288 235.035C117.332 234.981 117.368 234.91 117.412 234.848C117.507 234.729 117.59 234.601 117.66 234.467C117.66 234.378 117.723 234.28 117.758 234.183C117.816 234.038 117.863 233.89 117.9 233.739C117.9 233.624 117.9 233.499 117.944 233.375C117.989 233.251 117.989 233.109 117.997 232.958C118.006 232.807 117.997 232.834 117.997 232.772C117.997 232.772 117.997 232.683 117.997 232.647C117.997 232.612 117.997 232.559 117.997 232.523V227.491L117.953 227.438L117.687 227.127L117.421 226.861L117.332 226.781L117.119 226.586L116.969 226.453H116.915L116.782 226.346L116.419 226.089L116.206 225.947L116.099 225.885L102.591 218.084H102.538L102.423 218.022L102.317 217.969L102.219 217.924H99.7533L97.6867 219.122C97.8799 219.012 98.0895 218.935 98.3076 218.892C98.5429 218.858 98.7818 218.858 99.0171 218.892C99.2861 218.916 99.5512 218.972 99.8065 219.06C100.115 219.16 100.412 219.291 100.693 219.451L111.753 226.79C112.04 226.958 112.313 227.148 112.569 227.358C112.839 227.581 113.094 227.821 113.332 228.077C113.583 228.358 113.817 228.655 114.033 228.964C114.254 229.266 114.458 229.58 114.645 229.905C115.044 230.54 115.368 231.219 115.612 231.928Z" fill="#0B3866" fill-opacity="0.15"/>
<path d="M165.466 276.284C165.569 276.624 165.649 276.971 165.706 277.322C165.759 277.657 165.786 277.995 165.785 278.334C165.781 278.533 165.763 278.731 165.732 278.928C165.732 279.053 165.732 279.177 165.688 279.283C165.651 279.434 165.604 279.583 165.546 279.727C165.546 279.816 165.484 279.922 165.448 280.011C165.378 280.146 165.295 280.273 165.2 280.393C165.2 280.455 165.12 280.526 165.076 280.579C164.935 280.74 164.771 280.877 164.588 280.987L166.655 279.789C166.837 279.679 167.002 279.542 167.142 279.381C167.187 279.328 167.222 279.257 167.267 279.195C167.361 279.075 167.444 278.948 167.515 278.813C167.515 278.724 167.577 278.627 167.612 278.529C167.67 278.385 167.718 278.236 167.754 278.085C167.754 277.97 167.754 277.846 167.799 277.721C167.843 277.597 167.843 277.455 167.852 277.313C167.861 277.171 167.852 277.189 167.852 277.127C167.852 277.127 167.852 277.038 167.852 276.994C167.852 276.949 167.852 276.905 167.852 276.861V271.873L167.808 271.82L167.542 271.509L167.275 271.243L167.187 271.163L166.974 270.968L166.823 270.835H166.77L166.637 270.728L166.273 270.471L166.051 270.329L165.945 270.267L146.193 258.854H146.14L146.033 258.792L145.927 258.739L145.829 258.694H143.364L141.297 259.892C141.49 259.782 141.7 259.704 141.918 259.662C142.153 259.627 142.392 259.627 142.628 259.662C142.894 259.686 143.156 259.743 143.408 259.83C143.701 259.929 143.983 260.057 144.251 260.212L164.003 271.625C164.292 271.792 164.568 271.982 164.828 272.192C165.1 272.415 165.358 272.655 165.599 272.911C165.85 273.193 166.084 273.489 166.3 273.799C166.521 274.101 166.725 274.415 166.912 274.739C166.487 275.305 166.002 275.823 165.466 276.284Z" fill="#0B3866" fill-opacity="0.15"/>
<path d="M174.451 268.057C174.495 268.004 174.531 267.933 174.575 267.871C174.67 267.749 174.753 267.618 174.823 267.48C174.823 267.391 174.885 267.294 174.921 267.196C174.979 267.052 175.026 266.903 175.063 266.752C175.063 266.637 175.063 266.513 175.107 266.388C175.151 266.264 175.151 266.122 175.16 265.98C175.169 265.838 175.16 265.856 175.16 265.794C175.16 265.794 175.16 265.705 175.16 265.67C175.16 265.634 175.16 265.581 175.16 265.537V260.46L175.116 260.407L174.85 260.096L174.805 260.043L174.593 259.83L174.504 259.75L174.291 259.555L174.14 259.422H174.087L173.954 259.315L173.59 259.058L173.369 258.916L173.262 258.854L127.364 233.402H127.31L127.204 233.34L127.097 233.286L127 233.242H124.534L122.352 234.289C122.545 234.179 122.755 234.101 122.973 234.058C123.208 234.024 123.447 234.024 123.683 234.058C123.949 234.083 124.211 234.14 124.463 234.227C124.756 234.326 125.038 234.454 125.306 234.609L168.969 259.83C169.259 259.998 169.535 260.188 169.794 260.398C170.064 260.621 170.319 260.861 170.557 261.117C170.808 261.398 171.042 261.695 171.258 262.004C171.479 262.307 171.683 262.621 171.87 262.945C172.057 263.27 172.225 263.605 172.375 263.948C172.523 264.283 172.65 264.627 172.757 264.977C172.963 265.638 173.07 266.326 173.076 267.019C173.072 267.221 173.054 267.422 173.023 267.622C173.023 267.746 173.023 267.871 172.978 267.986C172.942 268.137 172.894 268.285 172.837 268.43C172.837 268.527 172.774 268.625 172.739 268.714C172.669 268.851 172.586 268.982 172.491 269.104C172.491 269.166 172.411 269.237 172.366 269.29C172.223 269.452 172.056 269.589 171.87 269.699L173.936 268.501C174.131 268.382 174.305 268.232 174.451 268.057Z" fill="#0B3866" fill-opacity="0.15"/>
<path d="M176.641 228.627C176.686 228.574 176.721 228.503 176.766 228.441C176.861 228.319 176.944 228.188 177.014 228.05C177.014 227.962 177.076 227.864 177.112 227.766C177.169 227.622 177.217 227.474 177.253 227.323C177.253 227.207 177.253 227.083 177.298 226.959C177.342 226.834 177.342 226.692 177.351 226.55C177.36 226.408 177.351 226.426 177.351 226.364C177.351 226.364 177.351 226.275 177.351 226.24C177.351 226.204 177.351 226.151 177.351 226.116V221.137L177.307 221.084L177.041 220.773L176.996 220.72L176.783 220.507L176.695 220.427L176.482 220.232L176.331 220.099H176.278L176.145 219.992L175.781 219.735L175.559 219.593L175.453 219.531L102.725 177.501H102.671L102.556 177.438L102.45 177.385L102.352 177.341H97.5626L95.496 178.539C95.6891 178.429 95.8988 178.351 96.1169 178.308C96.3521 178.274 96.5911 178.274 96.8264 178.308C97.0924 178.333 97.3544 178.39 97.6069 178.477C97.9151 178.576 98.2123 178.707 98.4938 178.867L171.222 220.897C171.512 221.065 171.788 221.255 172.047 221.465C172.32 221.688 172.578 221.928 172.819 222.184C173.831 223.278 174.586 224.585 175.027 226.009C175.13 226.349 175.21 226.696 175.267 227.047C175.321 227.382 175.347 227.72 175.347 228.059C175.342 228.261 175.324 228.463 175.293 228.663C175.293 228.787 175.293 228.911 175.249 229.026C175.212 229.178 175.165 229.326 175.107 229.47C175.107 229.559 175.045 229.665 175.01 229.754C174.939 229.892 174.856 230.023 174.761 230.145C174.761 230.207 174.681 230.278 174.637 230.331C174.494 230.493 174.326 230.63 174.14 230.739L176.207 229.541C176.426 229.278 176.575 228.963 176.641 228.627Z" fill="#0B3866" fill-opacity="0.15"/>
<path d="M96.0991 163.496C96.3344 163.462 96.5734 163.462 96.8087 163.496C97.0776 163.521 97.3427 163.577 97.598 163.665C97.9062 163.765 98.2034 163.896 98.485 164.056L140.055 188.07C140.345 188.238 140.621 188.427 140.88 188.638C141.15 188.861 141.405 189.101 141.643 189.357C142.146 189.897 142.587 190.493 142.956 191.132C143.143 191.457 143.311 191.791 143.461 192.135C143.609 192.47 143.736 192.814 143.843 193.164C143.945 193.502 144.025 193.846 144.082 194.194C144.136 194.528 144.163 194.867 144.162 195.205C144.157 195.405 144.139 195.603 144.109 195.8C144.109 195.924 144.109 196.048 144.064 196.164C144.028 196.315 143.98 196.463 143.923 196.608C143.923 196.705 143.86 196.803 143.825 196.892C143.754 197.026 143.671 197.154 143.577 197.273C143.577 197.335 143.497 197.406 143.452 197.46C143.309 197.621 143.142 197.759 142.956 197.868L145.022 196.67C145.208 196.561 145.376 196.423 145.519 196.261C145.563 196.208 145.599 196.137 145.643 196.075C145.738 195.956 145.821 195.828 145.891 195.694C145.891 195.605 145.954 195.507 145.989 195.41C146.047 195.265 146.094 195.117 146.131 194.966C146.131 194.85 146.131 194.726 146.175 194.602C146.22 194.478 146.22 194.345 146.229 194.194C146.237 194.043 146.229 194.069 146.229 194.007C146.229 194.007 146.229 193.919 146.229 193.883C146.229 193.848 146.229 193.794 146.229 193.75V188.674L146.184 188.62L145.971 188.372L143.683 188.141L143.417 187.875L143.328 187.795L143.115 187.6L142.965 187.467H142.911L142.796 187.254L142.432 186.996L142.22 186.854L142.113 186.792L100.543 162.778H100.489L100.374 162.716L100.268 162.662L100.17 162.618H97.7045L95.6379 163.816C95.7763 163.689 95.9315 163.581 96.0991 163.496Z" fill="#0B3866" fill-opacity="0.15"/>
<path d="M129.98 168.786C130.128 169.124 130.255 169.471 130.361 169.824C130.464 170.164 130.544 170.511 130.601 170.862C130.654 171.197 130.681 171.535 130.681 171.874C130.676 172.073 130.658 172.272 130.627 172.469C130.627 172.593 130.627 172.717 130.583 172.833C130.546 172.984 130.499 173.132 130.441 173.276C130.441 173.374 130.379 173.472 130.344 173.56C130.273 173.695 130.19 173.823 130.095 173.942C130.095 174.004 130.015 174.075 129.971 174.128C129.828 174.29 129.66 174.427 129.474 174.536L131.541 173.338C131.727 173.229 131.895 173.092 132.038 172.93C132.082 172.877 132.117 172.806 132.162 172.744C132.256 172.625 132.339 172.497 132.41 172.362C132.41 172.273 132.472 172.176 132.508 172.078C132.566 171.934 132.613 171.786 132.65 171.634C132.65 171.519 132.65 171.395 132.694 171.271C132.738 171.146 132.738 171.013 132.747 170.862C132.756 170.712 132.747 170.738 132.747 170.676C132.747 170.676 132.747 170.587 132.747 170.543C132.747 170.499 132.747 170.454 132.747 170.41V165.431L132.703 165.378L132.437 165.067L132.171 164.801L132.082 164.721L131.869 164.526L131.718 164.393H131.665L131.532 164.286L131.168 164.029L130.956 163.887L130.849 163.825L102.787 147.611H102.733L102.618 147.549L102.512 147.496L102.414 147.451H99.9484L95.5226 148.206C95.7157 148.096 95.9254 148.018 96.1435 147.975C96.3788 147.941 96.6177 147.941 96.853 147.975C97.4282 148.041 97.9821 148.232 98.4761 148.534L126.539 164.748C126.828 164.915 127.104 165.105 127.363 165.316C127.633 165.538 127.888 165.779 128.126 166.035C128.377 166.316 128.611 166.612 128.827 166.922C129.048 167.224 129.252 167.538 129.439 167.863C129.635 168.161 129.816 168.469 129.98 168.786Z" fill="#0B3866" fill-opacity="0.15"/>
<path d="M232.163 359.492V354.495L232.119 354.442L231.853 354.132L231.809 354.078L231.596 353.865L231.507 353.785L231.294 353.59L231.143 353.457H231.09L230.957 353.351L230.594 353.093L230.372 352.951L230.265 352.889L212.598 342.683H212.544L212.438 342.621L212.332 342.568L212.234 342.524H209.768L207.702 343.722C207.895 343.612 208.105 343.534 208.323 343.491C208.558 343.457 208.797 343.457 209.032 343.491C209.298 343.516 209.56 343.572 209.813 343.66C210.105 343.759 210.388 343.887 210.655 344.041L228.323 354.247C228.612 354.414 228.888 354.604 229.148 354.815C229.421 355.037 229.678 355.277 229.919 355.534C230.171 355.815 230.405 356.112 230.62 356.421C231.063 357.026 231.438 357.678 231.738 358.365C231.885 358.703 232.013 359.05 232.119 359.403C232.222 359.743 232.302 360.09 232.359 360.441C232.412 360.776 232.439 361.114 232.438 361.453C232.434 361.652 232.416 361.851 232.385 362.048C232.385 362.172 232.385 362.296 232.341 362.412C232.304 362.563 232.257 362.711 232.199 362.855C232.199 362.944 232.137 363.051 232.101 363.13C232.031 363.265 231.947 363.393 231.853 363.512C231.853 363.574 231.773 363.645 231.729 363.698C231.588 363.856 231.423 363.991 231.241 364.098L233.308 362.9C233.49 362.79 233.655 362.652 233.795 362.491C233.84 362.438 233.875 362.367 233.92 362.305C234.014 362.186 234.097 362.058 234.168 361.923C234.168 361.835 234.23 361.737 234.265 361.648C234.323 361.504 234.371 361.356 234.407 361.205C234.407 361.089 234.407 360.965 234.452 360.841C234.496 360.717 234.496 360.575 234.505 360.433C234.514 360.291 234.505 360.308 234.505 360.246C234.505 360.246 234.505 360.157 234.505 360.113C234.505 360.069 232.163 359.527 232.163 359.492Z" fill="#0B3866" fill-opacity="0.15"/>
<path d="M219.436 337.385C219.539 337.726 219.619 338.072 219.675 338.424C219.729 338.755 219.755 339.09 219.755 339.426C219.751 339.628 219.733 339.83 219.702 340.03C219.702 340.154 219.702 340.278 219.658 340.394C219.621 340.545 219.574 340.693 219.516 340.837C219.516 340.935 219.454 341.033 219.418 341.121C219.348 341.256 219.264 341.384 219.17 341.503C219.17 341.565 219.09 341.636 219.046 341.689C218.903 341.851 218.735 341.989 218.549 342.098L220.616 340.9C220.802 340.791 220.969 340.653 221.112 340.491C221.157 340.438 221.192 340.367 221.236 340.305C221.331 340.183 221.415 340.052 221.485 339.914C221.485 339.826 221.547 339.728 221.582 339.63C221.64 339.486 221.687 339.338 221.724 339.187C221.724 339.071 221.724 338.947 221.769 338.823C221.813 338.699 221.813 338.557 221.822 338.406C221.831 338.255 221.822 338.282 221.822 338.219C221.822 338.219 221.822 338.131 221.822 338.095C221.822 338.06 221.822 338.006 221.822 337.971V332.93L221.777 332.877L221.511 332.566L221.467 332.513L221.254 332.3L221.165 332.22L220.953 332.025L220.802 331.892H220.749L220.616 331.785L220.252 331.528L220.03 331.386L219.924 331.324L183.56 310.309H183.506L183.4 310.247L183.293 310.193L183.196 310.149H180.73L178.664 311.347C178.857 311.237 179.066 311.159 179.285 311.116C179.52 311.082 179.759 311.082 179.994 311.116C180.26 311.141 180.522 311.198 180.775 311.285C181.067 311.384 181.35 311.512 181.617 311.667L217.981 332.682C218.271 332.849 218.547 333.039 218.806 333.25C219.079 333.472 219.337 333.712 219.578 333.969C219.829 334.25 220.063 334.546 220.279 334.856C220.5 335.158 220.704 335.472 220.891 335.797C220.466 336.378 219.978 336.911 219.436 337.385Z" fill="#0B3866" fill-opacity="0.15"/>
<path d="M194.522 308.64C194.625 308.981 194.705 309.328 194.761 309.679C194.815 310.01 194.842 310.346 194.841 310.682C194.837 310.881 194.819 311.079 194.788 311.276C194.788 311.4 194.788 311.525 194.744 311.64C194.707 311.791 194.66 311.939 194.602 312.084C194.602 312.173 194.54 312.279 194.504 312.368C194.434 312.502 194.35 312.63 194.256 312.749C194.212 312.811 194.176 312.882 194.132 312.936C193.991 313.096 193.827 313.234 193.644 313.344L195.71 312.146C195.893 312.036 196.058 311.898 196.198 311.738C196.243 311.684 196.278 311.613 196.322 311.551C196.417 311.432 196.5 311.304 196.571 311.17C196.571 311.081 196.633 310.983 196.668 310.886C196.726 310.741 196.774 310.593 196.81 310.442C196.81 310.327 196.81 310.202 196.855 310.078C196.899 309.954 196.899 309.812 196.908 309.67C196.917 309.528 196.908 309.546 196.908 309.484C196.908 309.484 196.908 309.395 196.908 309.359C196.908 309.324 196.908 309.271 196.908 309.235V304.256L196.864 304.203L196.597 303.893L196.553 303.839L194.238 303.511L194.096 303.369L194.008 303.289L193.795 303.094L193.644 302.961H193.591L193.458 302.854L193.094 302.597L192.872 302.455L192.766 302.393L183.409 296.988H183.356L183.249 296.926L183.143 296.873L183.045 296.828H180.579L178.513 298.026C178.706 297.916 178.916 297.839 179.134 297.796C179.369 297.762 179.608 297.762 179.843 297.796C180.109 297.82 180.371 297.877 180.624 297.964C180.917 298.063 181.199 298.191 181.466 298.346L190.69 303.511C190.98 303.678 191.256 303.868 191.515 304.079C191.788 304.301 192.046 304.541 192.287 304.798C192.538 305.079 192.772 305.375 192.988 305.685C193.43 306.29 193.805 306.942 194.105 307.629C194.264 307.957 194.403 308.295 194.522 308.64Z" fill="#0B3866" fill-opacity="0.15"/>
<path d="M216.74 289.525V284.59L216.695 284.537L216.429 284.226L216.163 283.96L216.074 283.88L215.862 283.685L215.711 283.552H215.658L215.525 283.445L215.161 283.188L214.948 283.046L214.842 282.984L188.855 267.968H188.801L188.686 267.906L188.58 267.853L188.482 267.808H186.016L183.95 269.006C184.143 268.897 184.353 268.819 184.571 268.776C184.806 268.742 185.045 268.742 185.28 268.776C185.549 268.8 185.814 268.857 186.07 268.944C186.378 269.044 186.675 269.175 186.956 269.335L212.944 284.351C213.233 284.518 213.509 284.708 213.768 284.919C214.038 285.141 214.293 285.381 214.531 285.637C214.782 285.919 215.016 286.215 215.232 286.525C215.453 286.827 215.657 287.141 215.844 287.466C216.216 288.107 216.513 288.789 216.731 289.498C216.834 289.835 216.914 290.179 216.97 290.527C217.024 290.859 217.05 291.194 217.05 291.53C217.046 291.732 217.028 291.934 216.997 292.134C216.997 292.258 216.997 292.382 216.953 292.498C216.916 292.649 216.868 292.797 216.811 292.941C216.811 293.039 216.749 293.136 216.713 293.225C216.642 293.36 216.559 293.488 216.465 293.607C216.465 293.669 216.385 293.74 216.341 293.793C216.197 293.954 216.03 294.092 215.844 294.201L217.91 293.003C218.096 292.894 218.264 292.757 218.407 292.595C218.451 292.542 218.487 292.471 218.531 292.409C218.626 292.287 218.709 292.156 218.78 292.018C218.78 291.93 218.842 291.832 218.877 291.734C218.935 291.59 218.982 291.442 219.019 291.291C219.019 291.175 219.019 291.051 219.063 290.927C219.108 290.802 219.108 290.66 219.117 290.518C219.126 290.376 219.117 290.394 219.117 290.332C219.117 290.332 219.117 290.243 219.117 290.208C219.117 290.172 216.74 289.569 216.74 289.525Z" fill="#0B3866" fill-opacity="0.15"/>
<path d="M237.645 260.913V255.934L237.6 255.881L237.334 255.57L237.068 255.304L236.979 255.224L236.767 255.029L236.616 254.896H236.563L236.43 254.789L236.066 254.532L235.853 254.39L235.747 254.328L190.008 227.908H189.954L189.839 227.846L189.733 227.793L189.635 227.749H187.169L182.708 228.503C182.901 228.393 183.111 228.315 183.329 228.272C183.564 228.238 183.803 228.238 184.038 228.272C184.617 228.337 185.174 228.528 185.67 228.831L231.41 255.251C231.699 255.418 231.975 255.608 232.234 255.819C232.504 256.041 232.759 256.282 232.997 256.538C233.249 256.819 233.482 257.115 233.698 257.425C233.919 257.727 234.123 258.041 234.31 258.366C234.682 259.007 234.979 259.689 235.197 260.398C235.299 260.736 235.379 261.079 235.436 261.428C235.49 261.762 235.517 262.1 235.516 262.439C235.512 262.641 235.494 262.843 235.463 263.043C235.463 263.167 235.463 263.291 235.418 263.407C235.382 263.558 235.334 263.706 235.277 263.85C235.277 263.948 235.214 264.046 235.179 264.134C235.108 264.269 235.025 264.397 234.931 264.516C234.931 264.578 234.851 264.649 234.806 264.702C234.663 264.864 234.496 265.001 234.31 265.111L236.376 263.912C236.562 263.803 236.73 263.666 236.873 263.504C236.917 263.451 236.953 263.38 236.997 263.318C237.092 263.199 237.175 263.071 237.246 262.936C237.246 262.848 237.308 262.75 237.343 262.652C237.401 262.508 237.448 262.36 237.485 262.209C237.485 262.093 237.485 261.969 237.529 261.845C237.574 261.72 237.574 261.578 237.583 261.436C237.591 261.294 237.583 261.312 237.583 261.25C237.583 261.25 237.583 261.161 237.583 261.126C237.583 261.09 237.645 260.913 237.645 260.913Z" fill="#0B3866" fill-opacity="0.15"/>
<path d="M220.376 236.57C220.523 236.905 220.651 237.249 220.757 237.599C220.861 237.94 220.941 238.287 220.997 238.638C221.05 238.969 221.077 239.305 221.077 239.64C221.072 239.84 221.054 240.038 221.024 240.235C221.024 240.359 221.024 240.484 220.979 240.59C220.943 240.741 220.895 240.889 220.837 241.034C220.837 241.123 220.775 241.229 220.74 241.318C220.669 241.453 220.586 241.58 220.491 241.699C220.491 241.762 220.412 241.833 220.367 241.886C220.227 242.046 220.062 242.184 219.879 242.294L221.946 241.096C222.129 240.986 222.293 240.848 222.434 240.688C222.478 240.634 222.514 240.563 222.558 240.501C222.652 240.382 222.736 240.254 222.806 240.12C222.806 240.031 222.868 239.933 222.904 239.836C222.962 239.691 223.009 239.543 223.046 239.392C223.046 239.277 223.046 239.152 223.09 239.028C223.134 238.904 223.134 238.762 223.143 238.62C223.152 238.478 223.143 238.496 223.143 238.434C223.143 238.434 223.143 238.345 223.143 238.309C223.143 238.274 223.143 238.221 223.143 238.176V233.242L223.099 233.189L222.833 232.878L222.789 232.825L222.576 232.612L222.487 232.532L222.274 232.337L222.123 232.204H222.07L221.937 232.097L221.573 231.84L221.352 231.698L221.245 231.636L156.632 195.241H156.579L156.464 195.179L156.357 195.126L156.26 195.081H153.794L151.603 196.128C151.796 196.018 152.006 195.94 152.224 195.898C152.459 195.863 152.698 195.863 152.934 195.898C153.203 195.922 153.468 195.978 153.723 196.066C154.031 196.166 154.329 196.297 154.61 196.457L216.97 232.479C217.26 232.646 217.535 232.836 217.795 233.047C218.065 233.269 218.32 233.509 218.558 233.766C218.809 234.047 219.043 234.343 219.259 234.653C219.48 234.955 219.684 235.269 219.871 235.594C220.057 235.91 220.225 236.236 220.376 236.57Z" fill="#0B3866" fill-opacity="0.15"/>
<path d="M187.143 201.817C187.29 202.152 187.417 202.496 187.524 202.846C187.627 203.187 187.707 203.534 187.764 203.885C187.817 204.219 187.844 204.558 187.843 204.896C187.839 205.096 187.821 205.294 187.79 205.491C187.79 205.615 187.79 205.74 187.746 205.855C187.709 206.006 187.662 206.154 187.604 206.299C187.604 206.396 187.542 206.494 187.506 206.583C187.436 206.717 187.353 206.845 187.258 206.964C187.258 207.026 187.178 207.097 187.134 207.151C186.991 207.312 186.823 207.45 186.637 207.559L188.704 206.361C188.89 206.252 189.057 206.114 189.2 205.953C189.245 205.899 189.28 205.828 189.325 205.766C189.42 205.644 189.503 205.513 189.573 205.376C189.573 205.287 189.635 205.189 189.67 205.092C189.728 204.947 189.776 204.799 189.812 204.648C189.812 204.533 189.812 204.408 189.857 204.284C189.901 204.16 189.901 204.018 189.91 203.876C189.919 203.734 189.91 203.752 189.91 203.69C189.91 203.69 189.91 203.601 189.91 203.556C189.91 203.512 189.91 203.468 189.91 203.423V198.462L189.866 198.409L189.6 198.099L189.333 197.832L189.245 197.752L189.032 197.557L188.881 197.424H188.828L188.695 197.318L188.331 197.06L188.118 196.918L188.012 196.856L146.433 172.833H146.379L146.273 172.77L146.166 172.717L146.069 172.673H143.603L141.537 173.871C141.941 173.643 142.406 173.547 142.867 173.596C143.133 173.621 143.395 173.677 143.648 173.764C143.94 173.864 144.223 173.991 144.49 174.146L186.07 198.17C186.359 198.337 186.635 198.527 186.894 198.737C187.164 198.96 187.419 199.2 187.657 199.456C187.908 199.738 188.142 200.034 188.358 200.344C188.579 200.646 188.783 200.96 188.97 201.285C188.379 201.519 187.767 201.697 187.143 201.817Z" fill="#0B3866" fill-opacity="0.15"/>
<path d="M100.534 131.708L100.418 131.646L100.312 131.592L100.214 131.548H97.7488L95.6823 132.746C95.8754 132.636 96.0851 132.558 96.3031 132.515C96.5384 132.481 96.7774 132.481 97.0126 132.515C97.5909 132.58 98.148 132.771 98.6446 133.074L145.421 160.098C145.711 160.265 145.987 160.455 146.246 160.666C146.516 160.888 146.771 161.128 147.009 161.384C147.26 161.666 147.494 161.962 147.71 162.272C147.931 162.574 148.135 162.888 148.322 163.213C148.694 163.854 148.991 164.536 149.209 165.245C149.311 165.582 149.391 165.926 149.448 166.274C149.501 166.606 149.528 166.941 149.528 167.277C149.523 167.479 149.506 167.681 149.475 167.881C149.475 168.005 149.475 168.129 149.43 168.244C149.394 168.395 149.346 168.544 149.288 168.688C149.288 168.786 149.226 168.883 149.191 168.972C149.12 169.107 149.037 169.235 148.943 169.354C148.898 169.416 148.863 169.487 148.818 169.54C148.675 169.701 148.508 169.839 148.322 169.948L150.388 168.75C150.574 168.641 150.742 168.503 150.885 168.342C150.929 168.289 150.965 168.218 151.009 168.156C151.104 168.036 151.187 167.909 151.257 167.774C151.257 167.685 151.32 167.588 151.355 167.49C151.413 167.346 151.46 167.197 151.497 167.046C151.497 166.931 151.497 166.807 151.541 166.682C151.586 166.558 151.586 166.416 151.594 166.274C151.603 166.132 151.594 166.15 151.594 166.088C151.594 166.088 151.594 165.999 151.594 165.964C151.594 165.928 151.594 165.875 151.594 165.839V160.808L151.55 160.754L151.284 160.444L151.018 160.177L150.929 160.098L150.716 159.902L150.566 159.769H150.512L150.379 159.663L150.016 159.405L149.803 159.263L149.696 159.201L102.92 132.178L100.534 131.708Z" fill="#0B3866" fill-opacity="0.15"/>
<path d="M157.519 167.854C157.754 167.82 157.993 167.82 158.229 167.854C158.495 167.879 158.757 167.935 159.009 168.023C159.302 168.122 159.584 168.249 159.852 168.404L171.284 175.007C171.574 175.174 171.85 175.364 172.109 175.575C172.382 175.797 172.64 176.037 172.881 176.294C173.135 176.575 173.372 176.871 173.59 177.181C173.812 177.483 174.016 177.797 174.202 178.122C174.389 178.447 174.558 178.781 174.708 179.125C174.855 179.46 174.983 179.804 175.089 180.154C175.192 180.492 175.272 180.835 175.329 181.184C175.382 181.515 175.409 181.85 175.409 182.186C175.404 182.388 175.386 182.59 175.355 182.79C175.355 182.914 175.355 183.038 175.311 183.154C175.274 183.305 175.227 183.453 175.169 183.597C175.169 183.686 175.107 183.793 175.072 183.881C175.001 184.019 174.918 184.15 174.823 184.272C174.823 184.334 174.743 184.405 174.699 184.458C174.556 184.62 174.388 184.757 174.202 184.867L176.269 183.668C176.455 183.559 176.623 183.422 176.766 183.26C176.81 183.207 176.845 183.136 176.89 183.074C176.985 182.952 177.068 182.821 177.138 182.683C177.138 182.595 177.2 182.497 177.236 182.408C177.293 182.264 177.341 182.116 177.378 181.965C177.378 181.849 177.378 181.725 177.422 181.601C177.466 181.476 177.466 181.334 177.475 181.184C177.484 181.033 177.475 181.059 177.475 180.997C177.475 180.997 177.475 180.908 177.475 180.873C177.475 180.837 177.475 180.784 177.475 180.749V175.664L177.431 175.61L177.165 175.3L177.12 175.246L176.978 175.104L174.726 174.829L174.637 174.749L174.424 174.554L174.273 174.421H174.22L174.087 174.315L173.723 174.057L173.502 173.915L173.395 173.853L161.963 167.25H161.91L161.803 167.188L161.697 167.135L161.599 167.091H159.133L157.067 168.289C157.26 168.179 157.47 168.101 157.688 168.058L157.519 167.854Z" fill="#0B3866" fill-opacity="0.15"/>
<path d="M185.582 184.059C185.817 184.025 186.056 184.025 186.291 184.059C186.867 184.124 187.421 184.315 187.914 184.618L243.019 216.407C243.309 216.574 243.585 216.764 243.844 216.975C244.114 217.197 244.369 217.438 244.607 217.694C245.11 218.234 245.551 218.829 245.92 219.469C246.107 219.793 246.275 220.128 246.425 220.471C246.718 221.132 246.927 221.827 247.046 222.539C247.1 222.871 247.126 223.206 247.126 223.542C247.122 223.744 247.104 223.946 247.073 224.145C247.073 224.27 247.073 224.394 247.028 224.509C246.992 224.66 246.944 224.809 246.887 224.953C246.887 225.051 246.824 225.148 246.789 225.237C246.719 225.375 246.636 225.506 246.541 225.628C246.541 225.69 246.461 225.761 246.416 225.814C246.273 225.975 246.106 226.113 245.92 226.222L247.986 225.024C248.172 224.915 248.34 224.777 248.483 224.616C248.527 224.563 248.563 224.492 248.607 224.429C248.702 224.31 248.785 224.182 248.855 224.048C248.855 223.959 248.918 223.861 248.953 223.764C249.011 223.619 249.058 223.471 249.095 223.32C249.095 223.205 249.095 223.08 249.139 222.956C249.184 222.832 249.184 222.69 249.193 222.548C249.201 222.406 249.193 222.424 249.193 222.362C249.193 222.362 249.193 222.273 249.193 222.237C249.193 222.202 249.193 222.149 249.193 222.113V217.09L249.148 217.037L248.882 216.726L248.616 216.46L248.527 216.38L248.314 216.185L248.164 216.052H248.11L247.977 215.945L247.614 215.688L247.401 215.546L247.295 215.484L189.981 183.376H189.928L189.821 183.313L189.715 183.26L189.617 183.216H187.143L185.076 184.414C185.269 184.304 185.479 184.226 185.697 184.183L185.582 184.059Z" fill="#0B3866" fill-opacity="0.15"/>
<path d="M236.607 241.442L236.501 241.38L236.394 241.327L236.297 241.282H233.831L231.764 242.48C231.957 242.37 232.167 242.292 232.385 242.25C232.62 242.215 232.859 242.215 233.095 242.25C233.361 242.274 233.623 242.331 233.875 242.418C234.168 242.517 234.45 242.645 234.718 242.8L267.854 261.889C268.143 262.056 268.419 262.246 268.678 262.457C268.948 262.68 269.203 262.92 269.441 263.176C269.692 263.457 269.926 263.754 270.142 264.063C270.363 264.365 270.567 264.679 270.754 265.004C270.941 265.329 271.11 265.663 271.259 266.007C271.407 266.342 271.534 266.686 271.641 267.036C271.744 267.374 271.824 267.718 271.88 268.066C271.934 268.397 271.96 268.733 271.96 269.069C271.955 269.268 271.938 269.466 271.907 269.663C271.907 269.787 271.907 269.912 271.863 270.027C271.826 270.178 271.778 270.326 271.721 270.471C271.721 270.568 271.659 270.666 271.623 270.755C271.552 270.889 271.469 271.017 271.375 271.136C271.375 271.199 271.295 271.27 271.251 271.323C271.107 271.484 270.94 271.622 270.754 271.731L272.82 270.533C273.006 270.424 273.174 270.286 273.317 270.125C273.361 270.071 273.397 270 273.441 269.938C273.536 269.819 273.619 269.691 273.69 269.557C273.69 269.468 273.752 269.37 273.787 269.273C273.845 269.128 273.892 268.98 273.929 268.829C273.929 268.714 273.929 268.589 273.973 268.465C274.018 268.341 274.018 268.199 274.027 268.057C274.035 267.915 274.027 267.933 274.027 267.871C274.027 267.871 274.027 267.782 274.027 267.746C274.027 267.711 274.027 267.658 274.027 267.622V262.59L273.982 262.537L273.716 262.226L273.45 261.96L273.361 261.88L273.149 261.685L272.998 261.552H272.945L272.812 261.445L272.448 261.188L272.235 261.046L272.129 260.984L236.669 241.478L236.607 241.442Z" fill="#0B3866" fill-opacity="0.15"/>
<path d="M282.045 388.441C282.045 388.441 282.045 388.352 282.045 388.308V383.373L282 383.32L281.734 383.009L281.468 382.743L281.379 382.663L281.166 382.468L281.016 382.335H280.962L280.829 382.229L280.466 381.971L280.253 381.829L280.146 381.767L246.878 362.554H246.824L246.718 362.491L246.612 362.438L246.514 362.394H244.048L241.982 363.592C242.175 363.482 242.385 363.404 242.603 363.361C242.838 363.327 243.077 363.327 243.312 363.361C243.887 363.424 244.441 363.611 244.935 363.911L275.836 382.61C276.125 382.777 276.401 382.967 276.661 383.178C276.931 383.401 277.185 383.641 277.424 383.897C277.675 384.178 277.909 384.475 278.124 384.784C278.345 385.086 278.55 385.401 278.736 385.725C278.923 386.05 279.092 386.385 279.242 386.728C279.389 387.063 279.516 387.407 279.623 387.757C279.726 388.098 279.806 388.445 279.863 388.796C279.916 389.13 279.943 389.469 279.942 389.807C279.938 390.007 279.92 390.205 279.889 390.402C279.889 390.526 279.889 390.651 279.845 390.766C279.808 390.917 279.761 391.065 279.703 391.21C279.703 391.298 279.641 391.405 279.605 391.494C279.535 391.628 279.452 391.756 279.357 391.875C279.357 391.937 279.277 392.008 279.233 392.062C279.09 392.223 278.922 392.361 278.736 392.47L280.803 391.272C280.989 391.163 281.156 391.025 281.299 390.863C281.344 390.81 281.379 390.739 281.424 390.677C281.518 390.558 281.601 390.43 281.672 390.296C281.672 390.207 281.734 390.109 281.77 390.02C281.827 389.876 281.875 389.728 281.911 389.577C281.911 389.461 281.911 389.337 281.956 389.213C282 389.089 282 388.947 282.009 388.805C282.018 388.663 282.009 388.68 282.009 388.618C282.009 388.618 282.045 388.485 282.045 388.441Z" fill="#0B3866" fill-opacity="0.15"/>
<path d="M82.4847 290.048C82.4847 292.711 80.6044 293.758 78.3073 292.427L61.6595 282.824C60.4517 282.037 59.4464 280.976 58.7252 279.727C58.004 278.478 57.5872 277.076 57.5087 275.636C57.5087 272.973 59.389 271.944 61.6862 273.266L78.3161 282.869C79.5261 283.653 80.5341 284.712 81.2584 285.96C81.9827 287.207 82.4028 288.608 82.4847 290.048ZM78.3782 268.518L61.7305 258.916C59.4422 257.594 57.5619 258.659 57.553 261.294C57.633 262.733 58.0504 264.133 58.7715 265.38C59.4926 266.628 60.4972 267.687 61.7039 268.474L78.325 278.076C80.6133 279.399 82.4936 278.334 82.5024 275.707C82.4239 274.267 82.0071 272.865 81.2859 271.616C80.5647 270.367 79.5594 269.306 78.3516 268.518H78.3782ZM78.3782 252.988L61.7748 243.386C59.4866 242.063 57.6063 243.128 57.5974 245.755C57.6759 247.195 58.0927 248.597 58.8139 249.846C59.5351 251.095 60.5404 252.156 61.7482 252.943L78.3693 262.546C80.6576 263.868 82.5379 262.803 82.5468 260.167C82.4669 258.729 82.0495 257.329 81.3283 256.082C80.6072 254.834 79.6026 253.774 78.396 252.988H78.3782ZM78.3782 238.647L61.8103 229.044C59.522 227.722 57.6417 228.787 57.6329 231.414C57.7128 232.853 58.1302 234.252 58.8513 235.5C59.5725 236.747 60.577 237.807 61.7837 238.593L78.4048 248.196C80.6931 249.518 82.5734 248.453 82.5823 245.826C82.5034 244.388 82.0873 242.989 81.3677 241.742C80.6482 240.494 79.6453 239.434 78.4403 238.647H78.3782ZM78.3782 223.107L61.8547 213.505C59.5664 212.183 57.6861 213.247 57.6772 215.883C57.7571 217.322 58.1745 218.722 58.8957 219.969C59.6168 221.216 60.6214 222.276 61.8281 223.063L78.4492 232.665C80.7375 233.987 82.6178 232.922 82.6266 230.296C82.5491 228.856 82.1336 227.455 81.414 226.206C80.6944 224.957 79.6908 223.896 78.4846 223.107H78.3782ZM78.3782 207.577L61.899 197.974C59.6107 196.652 57.7304 197.717 57.7216 200.344C57.8001 201.784 58.2169 203.186 58.9381 204.435C59.6593 205.684 60.6646 206.745 61.8724 207.532L78.4935 217.135C80.7818 218.457 82.6621 217.392 82.671 214.756C82.592 213.318 82.176 211.919 81.4564 210.672C80.7369 209.424 79.734 208.364 78.529 207.577H78.3782ZM84.6754 190.866L42.1027 166.248C39.8144 164.925 37.9341 165.99 37.9252 168.617C38.0038 170.057 38.4206 171.459 39.1417 172.708C39.8629 173.957 40.8682 175.018 42.0761 175.806L84.6488 200.424C86.9371 201.746 88.8174 200.681 88.8263 198.045C88.7633 196.62 88.369 195.229 87.6746 193.982C86.9802 192.736 86.0049 191.669 84.8262 190.866H84.6754ZM78.4669 166.904L62.0143 157.338C59.726 156.015 57.8457 157.08 57.8369 159.707C57.9154 161.147 58.3322 162.549 59.0534 163.798C59.7746 165.047 60.7799 166.108 61.9877 166.895L78.6088 176.498C80.8971 177.82 82.7774 176.755 82.7863 174.119C82.7073 172.681 82.2913 171.282 81.5717 170.035C80.8522 168.788 79.8493 167.727 78.6443 166.94L78.4669 166.904ZM78.4669 152.563L62.0853 142.996C59.797 141.674 57.9167 142.739 57.9078 145.366C57.9877 146.804 58.4051 148.204 59.1263 149.452C59.8474 150.699 60.852 151.759 62.0587 152.545L78.6798 162.148C80.9681 163.47 82.8484 162.405 82.8572 159.778C82.7676 158.345 82.3428 156.952 81.6173 155.713C80.8917 154.474 79.8856 153.422 78.6798 152.643L78.4669 152.563ZM78.4669 137.024L62.0853 127.457C59.797 126.134 57.9167 127.199 57.9078 129.835C57.9907 131.276 58.4122 132.678 59.138 133.925C59.8639 135.173 60.8737 136.231 62.0853 137.015L78.7064 146.617C80.9947 147.939 82.875 146.874 82.8838 144.248C82.8043 142.806 82.3862 141.404 81.6634 140.155C80.9406 138.906 79.9336 137.846 78.7241 137.059L78.4669 137.024ZM78.4669 121.493L62.1474 111.926C59.8591 110.604 57.9788 111.669 57.9699 114.296C58.0484 115.736 58.4652 117.138 59.1864 118.387C59.9076 119.636 60.9129 120.697 62.1207 121.484L78.7419 131.087C81.0301 132.409 82.9104 131.344 82.9193 128.708C82.8394 127.269 82.422 125.87 81.7008 124.622C80.9797 123.375 79.9751 122.315 78.7685 121.529L78.4669 121.493ZM42.1027 87.3259L97.1812 119.15C99.4695 120.472 101.35 119.408 101.359 116.781C101.279 115.342 100.861 113.942 100.14 112.695C99.419 111.448 98.4145 110.388 97.2078 109.601L42.4663 77.8123C40.178 76.49 38.2977 77.555 38.2889 80.1819C38.3678 81.6198 38.7839 83.0191 39.5034 84.2663C40.223 85.5136 41.2258 86.5739 42.4308 87.3614L42.1027 87.3259ZM42.1559 68.21L82.6887 91.6301C84.9681 92.9524 86.8484 91.8786 86.8573 89.2428C86.7791 87.8047 86.3633 86.4052 85.6437 85.1578C84.924 83.9105 83.9208 82.8503 82.7153 82.0633L42.5195 58.6876C40.2313 57.3653 38.351 58.4302 38.3421 61.0571C38.4206 62.4974 38.8374 63.8989 39.5586 65.1479C40.2798 66.3969 41.2851 67.4581 42.4929 68.2455L42.1559 68.21ZM142.796 320.098L98.0681 294.281C95.7798 292.959 93.8995 294.024 93.8907 296.651C93.9692 298.091 94.386 299.493 95.1072 300.742C95.8284 301.991 96.8337 303.052 98.0415 303.839L142.734 329.655C145.022 330.978 146.903 329.913 146.911 327.277C146.836 325.841 146.424 324.444 145.709 323.197C144.994 321.95 143.996 320.888 142.796 320.098ZM142.796 305.747L98.1036 279.931C95.8153 278.609 93.935 279.674 93.9261 282.309C94.006 283.748 94.4235 285.148 95.1446 286.395C95.8657 287.643 96.8703 288.702 98.077 289.489L142.796 315.314C145.084 316.636 146.965 315.571 146.974 312.945C146.893 311.5 146.473 310.096 145.747 308.845C145.021 307.594 144.01 306.533 142.796 305.747ZM98.1479 264.401C95.8597 263.078 93.9794 264.143 93.9705 266.77C94.049 268.21 94.4658 269.612 95.187 270.861C95.9082 272.11 96.9135 273.171 98.1213 273.959L137.616 296.775C139.896 298.097 141.776 297.024 141.785 294.388C141.707 292.95 141.291 291.55 140.571 290.303C139.852 289.055 138.849 287.995 137.643 287.208L98.1479 264.401ZM185.369 344.716L160.419 330.303C158.14 328.981 156.26 330.055 156.251 332.682C156.328 334.121 156.744 335.522 157.463 336.771C158.183 338.02 159.187 339.082 160.393 339.87L185.369 354.282C187.648 355.605 189.529 354.531 189.537 351.895C189.456 350.455 189.036 349.054 188.312 347.806C187.588 346.559 186.579 345.5 185.369 344.716ZM190.602 333.365L160.446 315.953C158.167 314.631 156.286 315.705 156.277 318.34C156.357 319.777 156.773 321.175 157.493 322.42C158.213 323.666 159.215 324.725 160.419 325.511L190.575 342.923C192.863 344.245 194.744 343.18 194.753 340.553C194.674 339.115 194.258 337.716 193.538 336.469C192.818 335.222 191.816 334.161 190.611 333.374L190.602 333.365ZM164.65 307.629C164.57 306.19 164.153 304.79 163.432 303.543C162.711 302.296 161.706 301.236 160.499 300.449L150.104 294.441C147.825 293.119 145.945 294.193 145.936 296.819C146.013 298.259 146.429 299.66 147.148 300.909C147.868 302.158 148.872 303.219 150.078 304.008L160.473 310.016C162.779 311.312 164.659 310.238 164.668 307.602L164.65 307.629ZM170.921 296.89C170.843 295.452 170.427 294.053 169.707 292.805C168.988 291.558 167.984 290.498 166.779 289.711L98.1834 250.077C95.8951 248.755 94.0148 249.82 94.006 252.447C94.0859 253.885 94.5033 255.285 95.2244 256.532C95.9456 257.78 96.9501 258.839 98.1568 259.626L166.743 299.242C169.049 300.565 170.93 299.491 170.938 296.864L170.921 296.89ZM98.1923 244.104L126.255 260.318C128.534 261.641 130.415 260.567 130.423 257.94C130.346 256.5 129.93 255.099 129.211 253.85C128.491 252.602 127.488 251.54 126.281 250.751L98.2189 234.538C95.9306 233.215 94.0503 234.28 94.0414 236.916C94.1301 238.349 94.5535 239.741 95.2775 240.98C96.0014 242.219 97.0059 243.271 98.21 244.051L98.1923 244.104ZM98.1923 228.574L111.753 236.357C114.033 237.679 115.913 236.605 115.922 233.97C115.844 232.531 115.428 231.132 114.708 229.885C113.989 228.637 112.986 227.577 111.78 226.79L98.2721 218.989C95.9838 217.667 94.1035 218.732 94.0947 221.359C94.1742 222.8 94.5923 224.202 95.3151 225.451C96.0379 226.7 97.0449 227.761 98.2544 228.547L98.1923 228.574ZM161.546 280.73C163.834 282.052 165.714 280.987 165.723 278.36C165.645 276.92 165.228 275.519 164.507 274.27C163.786 273.021 162.78 271.959 161.572 271.172L141.909 259.741C139.63 258.419 137.749 259.493 137.741 262.129C137.819 263.567 138.235 264.966 138.954 266.214C139.674 267.461 140.677 268.521 141.883 269.308L161.546 280.73ZM173.076 267.019C172.996 265.58 172.579 264.18 171.858 262.933C171.136 261.685 170.132 260.626 168.925 259.839L125.261 234.617C122.982 233.295 121.102 234.369 121.093 236.996C121.17 238.435 121.586 239.836 122.305 241.085C123.025 242.334 124.029 243.396 125.235 244.184L168.899 269.406C171.222 270.675 173.103 269.637 173.111 267.001L173.076 267.019ZM175.267 227.58C175.187 226.141 174.769 224.741 174.048 223.494C173.327 222.247 172.323 221.187 171.116 220.4L98.3874 178.37C96.0991 177.048 94.2188 178.113 94.21 180.74C94.2885 182.18 94.7053 183.582 95.4265 184.831C96.1477 186.08 97.153 187.141 98.3608 187.928L171.089 229.958C173.413 231.272 175.293 230.198 175.302 227.562L175.267 227.58ZM98.4495 173.569L140.02 197.584C142.299 198.906 144.18 197.832 144.189 195.205C144.11 193.767 143.695 192.368 142.975 191.12C142.255 189.873 141.252 188.813 140.047 188.026L98.4495 164.02C96.1612 162.698 94.2809 163.763 94.272 166.39C94.3549 167.831 94.7764 169.232 95.5023 170.48C96.2281 171.727 97.2379 172.786 98.4495 173.569ZM98.4495 158.039L126.512 174.253C128.791 175.575 130.672 174.501 130.681 171.874C130.603 170.435 130.188 169.034 129.468 167.785C128.748 166.536 127.745 165.474 126.539 164.686L98.4495 148.472C96.1612 147.15 94.2809 148.214 94.272 150.85C94.3535 152.293 94.7744 153.696 95.5003 154.945C96.2262 156.194 97.2367 157.254 98.4495 158.039ZM225.955 353.785L208.287 343.58C206.008 342.257 204.127 343.331 204.119 345.967C204.198 347.404 204.615 348.801 205.334 350.047C206.054 351.293 207.056 352.351 208.261 353.138L225.928 363.343C228.217 364.666 230.097 363.601 230.106 360.974C230.027 359.534 229.61 358.132 228.889 356.883C228.168 355.634 227.163 354.573 225.955 353.785ZM179.16 320.799L215.525 341.814C217.813 343.136 219.693 342.071 219.702 339.435C219.622 337.996 219.205 336.597 218.484 335.349C217.762 334.102 216.758 333.042 215.551 332.256L179.187 311.241C176.908 309.918 175.027 310.992 175.018 313.619C175.097 315.057 175.513 316.456 176.233 317.703C176.952 318.951 177.955 320.011 179.16 320.799ZM181.28 307.646L190.69 313.051C192.979 314.373 194.859 313.308 194.868 310.682C194.784 309.242 194.362 307.842 193.636 306.597C192.91 305.351 191.901 304.294 190.69 303.511L181.333 298.106C179.054 296.784 177.174 297.858 177.165 300.485C177.247 301.921 177.665 303.317 178.386 304.561C179.107 305.805 180.111 306.862 181.316 307.646H181.28ZM210.549 283.836L184.562 268.82C182.273 267.498 180.393 268.563 180.384 271.19C180.463 272.63 180.88 274.031 181.601 275.28C182.322 276.529 183.327 277.591 184.535 278.378L210.522 293.394C212.802 294.716 214.682 293.642 214.691 291.007C214.609 289.571 214.191 288.174 213.469 286.93C212.748 285.686 211.745 284.629 210.54 283.845L210.549 283.836ZM231.454 255.207L185.715 228.787C183.426 227.465 181.546 228.529 181.537 231.156C181.616 232.597 182.033 233.998 182.754 235.247C183.475 236.496 184.48 237.557 185.688 238.345L231.427 264.764C233.707 266.087 235.587 265.013 235.596 262.377C235.514 260.941 235.096 259.545 234.374 258.301C233.653 257.057 232.65 256 231.445 255.215L231.454 255.207ZM221.077 239.614C220.997 238.175 220.579 236.775 219.858 235.528C219.137 234.281 218.133 233.221 216.926 232.434L154.566 196.412C152.277 195.09 150.397 196.155 150.388 198.782C150.468 200.221 150.886 201.62 151.607 202.868C152.328 204.115 153.332 205.175 154.539 205.961L216.899 241.983C219.196 243.341 221.068 242.276 221.077 239.614ZM137.962 176.045C138.041 177.483 138.456 178.883 139.176 180.13C139.896 181.378 140.899 182.438 142.104 183.225L183.684 207.248C185.963 208.571 187.843 207.497 187.852 204.87C187.775 203.43 187.359 202.029 186.64 200.78C185.92 199.532 184.917 198.47 183.71 197.681L142.131 173.658C139.851 172.371 137.971 173.445 137.962 176.081V176.045ZM94.343 135.284C94.4215 136.724 94.8383 138.126 95.5595 139.375C96.2807 140.624 97.286 141.685 98.4938 142.473L145.271 169.505C147.55 170.827 149.43 169.753 149.439 167.117C149.361 165.679 148.945 164.28 148.226 163.032C147.506 161.785 146.503 160.725 145.297 159.938L98.5293 132.941C96.2322 131.619 94.3607 132.693 94.3519 135.311L94.343 135.284ZM159.816 177.882L171.249 184.485C173.537 185.807 175.417 184.742 175.426 182.107C175.346 180.668 174.929 179.268 174.208 178.021C173.487 176.773 172.482 175.714 171.276 174.927L159.843 168.324C157.564 167.002 155.683 168.076 155.674 170.703C155.747 172.149 156.162 173.558 156.883 174.813C157.604 176.069 158.613 177.136 159.825 177.927L159.816 177.882ZM187.879 194.096L243.019 225.965C245.299 227.287 247.179 226.213 247.188 223.577C247.11 222.139 246.694 220.74 245.974 219.492C245.255 218.245 244.252 217.185 243.046 216.398L187.914 184.591C185.635 183.269 183.755 184.343 183.746 186.97C183.826 188.406 184.243 189.804 184.962 191.049C185.682 192.295 186.684 193.354 187.888 194.14L187.879 194.096ZM230.452 245.01C230.53 246.448 230.946 247.847 231.665 249.095C232.385 250.342 233.388 251.402 234.594 252.189L267.854 271.447C270.133 272.769 272.013 271.695 272.022 269.069C271.941 267.628 271.521 266.227 270.797 264.98C270.072 263.732 269.064 262.673 267.854 261.889L234.585 242.676C232.314 241.389 230.443 242.427 230.434 245.054L230.452 245.01ZM275.871 382.566L242.603 363.352C240.323 362.03 238.443 363.104 238.434 365.74C238.512 367.178 238.928 368.577 239.648 369.825C240.367 371.072 241.37 372.132 242.576 372.919L275.836 392.177C278.115 393.499 279.996 392.425 280.005 389.799C279.924 388.357 279.505 386.954 278.78 385.705C278.056 384.456 277.047 383.396 275.836 382.61L275.871 382.566Z" fill="url(#paint5_linear_119_9)"/>
</g>
<defs>
<linearGradient id="paint0_linear_119_9" x1="123.984" y1="441.537" x2="291.65" y2="441.537" gradientUnits="userSpaceOnUse">
<stop offset="0.1" stop-color="#0B3866"/>
<stop offset="0.9" stop-color="#2AF590"/>
</linearGradient>
<linearGradient id="paint1_linear_119_9" x1="55170.2" y1="42816.6" x2="23519.9" y2="42816.6" gradientUnits="userSpaceOnUse">
<stop offset="0.1" stop-color="#0B3866"/>
<stop offset="0.9" stop-color="#2AF590"/>
</linearGradient>
<linearGradient id="paint2_linear_119_9" x1="20416.2" y1="72401.9" x2="14447.3" y2="72401.9" gradientUnits="userSpaceOnUse">
<stop offset="0.1" stop-color="#0B3866"/>
<stop offset="0.9" stop-color="#07F49E"/>
</linearGradient>
<linearGradient id="paint3_linear_119_9" x1="-18.2442" y1="37.9211" x2="406.849" y2="462.753" gradientUnits="userSpaceOnUse">
<stop offset="0.1" stop-color="#0B3866"/>
<stop offset="0.9" stop-color="#07F49E"/>
</linearGradient>
<linearGradient id="paint4_linear_119_9" x1="185517" y1="133811" x2="3052.01" y2="133811" gradientUnits="userSpaceOnUse">
<stop offset="0.1" stop-color="#0B3866"/>
<stop offset="0.9" stop-color="#07F49E"/>
</linearGradient>
<linearGradient id="paint5_linear_119_9" x1="11333.3" y1="21678.2" x2="98150.9" y2="130461" gradientUnits="userSpaceOnUse">
<stop offset="0.1" stop-color="white"/>
<stop offset="0.9" stop-color="#07F49E"/>
</linearGradient>
<clipPath id="clip0_119_9">
<rect width="409" height="502" fill="white"/>
</clipPath>
</defs>
</svg>
