<svg width="104" height="99" viewBox="0 0 104 99" fill="none" xmlns="http://www.w3.org/2000/svg">
<path d="M43.6514 85.6329C58.9229 85.6329 71.3029 73.2529 71.3029 57.9815C71.3029 42.71 58.9229 30.33 43.6514 30.33C28.38 30.33 16 42.71 16 57.9815C16 73.2529 28.38 85.6329 43.6514 85.6329Z" fill="#0B3866" fill-opacity="0.2"/>
<path d="M87.2114 55.7513C95.995 55.7513 103.115 48.6308 103.115 39.8472C103.115 31.0637 95.995 23.9432 87.2114 23.9432C78.4279 23.9432 71.3074 31.0637 71.3074 39.8472C71.3074 48.6308 78.4279 55.7513 87.2114 55.7513Z" fill="#07F49E" fill-opacity="0.06"/>
<path fill-rule="evenodd" clip-rule="evenodd" d="M31.2659 91.2341C31.1721 91.1872 31.0704 91.1139 30.9203 90.9763L20.9059 80.9622C20.5431 80.566 20.5387 80.5336 20.5164 80.0216V67.268C20.5492 66.5165 21.1896 65.9092 21.9624 65.9429C22.6317 66.0311 23.1469 66.5901 23.1765 67.268V71.3659C23.2444 71.4109 23.3086 71.4621 23.3682 71.5187L32.7476 80.8981C33.2956 81.4755 33.2221 82.5057 32.5316 82.9541C32.026 83.2825 31.3097 83.1996 30.8666 82.7792L23.1765 75.0891V79.4707L32.8013 89.0953C32.8013 89.0953 32.8928 89.1632 33.0126 89.3708C33.0289 89.3992 33.0438 89.4279 33.0573 89.4571C33.7625 89.0575 34.5697 88.8327 35.3979 88.8358C37.68 88.8557 39.7989 90.7321 40.0473 93.0335C40.2628 95.0329 39.0437 97.1114 37.1736 97.89C35.492 98.59 33.4153 98.1986 32.1002 96.9299C30.6774 95.5575 30.2595 93.2427 31.1509 91.4503C31.1873 91.377 31.2257 91.305 31.2659 91.2341ZM35.3525 91.2361C33.8411 91.2493 32.5854 93.0376 33.2759 94.5162C33.8656 95.779 35.7269 96.2473 36.8446 95.3138C37.7936 94.5213 37.9251 92.9166 37.0655 91.9823C36.6321 91.5113 36.0059 91.2335 35.3525 91.2361ZM52.3256 77.1681C52.5626 77.189 52.6009 77.2089 52.7032 77.2461C53.1636 77.4138 53.5121 77.8512 53.5693 78.3416C53.5773 78.41 53.5764 78.4272 53.5784 78.4959V84.8872C53.5685 85.2391 53.4294 85.5733 53.1887 85.8277L48.0067 91.0099C47.2791 91.6963 45.8372 91.2837 45.7412 90.1853C45.7118 89.8508 45.8149 89.5073 46.0228 89.2445C46.0655 89.1905 46.0785 89.1789 46.1257 89.1289L50.9182 84.3364V78.4959C50.9182 78.4959 50.9812 77.8629 51.3355 77.5285C51.5422 77.3336 51.8124 77.2078 52.0938 77.1748C52.2424 77.1576 52.2779 77.1668 52.3256 77.1681ZM6.73077 42.7519L0.34327 33.0303C0.214783 32.7747 0.15658 32.7142 0.121595 32.4244C0.0630777 31.9401 0.163485 31.7087 0.202392 31.4006C1.25837 23.0589 5.08726 15.0237 11.3278 9.39175C18.452 2.96252 28.3725 0.04669 37.9267 0.000252559C38.0213 9.56756e-05 38.116 -6.10352e-05 38.2108 -6.10352e-05C40.4235 0.00699871 42.6369 0.144584 44.838 0.401401C45.0035 0.420855 45.1232 0.429954 45.2941 0.490354C45.5597 0.584327 45.6055 0.650532 45.8215 0.823104L51.9399 6.94155C52.0444 7.08541 52.1235 7.17766 52.1844 7.27414C58.0628 8.21779 63.6568 10.8981 68.0159 14.944C73.1653 19.7234 76.5828 26.3503 77.4374 33.3348C77.4386 33.3386 77.4567 33.4548 77.4691 33.5334C78.1774 38.0929 78.6414 42.7222 80.0863 47.0834C80.4379 48.1444 80.8604 49.1812 81.3858 50.1702C81.3858 50.1702 81.8486 51.1065 82.0063 51.9526C82.3552 53.8247 81.7931 55.8406 80.5319 57.2797C76.3221 62.0115 73.5603 67.7218 71.7794 73.7775C71.192 75.775 70.3678 77.8628 68.1952 78.5435C66.3881 79.1097 64.4122 78.7826 62.6814 78.3246L45.287 72.1505V77.1489C45.2633 78.1695 43.8849 78.8831 43.0608 78.1318C42.7883 77.8835 42.6354 77.5212 42.6267 77.1489V71.2062L27.9779 66.0066C27.8945 65.9826 27.811 65.958 27.7275 65.9334C17.6111 62.9068 9.43998 54.333 6.99418 43.9864C6.89738 43.5767 6.80952 43.1651 6.73077 42.7519ZM72.2198 64.4697C73.7304 61.3869 75.5805 58.4832 77.8515 55.8765C78.2149 55.4595 78.6432 55.0021 78.8669 54.5184C79.3437 53.4872 79.1672 52.2703 78.6385 51.2552C75.9277 45.9918 75.4644 39.6859 74.5537 33.8923C74.5537 33.8923 74.4478 33.0563 74.322 32.3358C72.9725 24.6 68.0512 17.5272 61.2237 13.5347C57.1176 11.1335 52.393 9.85377 47.6024 9.83243C43.8454 9.82663 40.0884 9.83227 36.3315 9.83227C36.0747 9.83275 35.818 9.83698 35.5615 9.84514V15.4467C35.5353 16.5952 33.73 17.3009 33.0647 16.0853C32.987 15.9437 32.9357 15.7879 32.9136 15.6279C32.9055 15.5679 32.9026 15.5074 32.9014 15.4467V10.0651C25.229 11.0922 18.0251 15.4568 13.6805 21.9694C8.81904 29.2568 7.76683 38.9627 11.0841 47.1924C14.0698 54.5992 20.4756 60.5364 28.0368 62.9565C28.3151 63.0456 28.5949 63.1294 28.8758 63.2102L32.9014 64.6391V59.4949C32.9064 59.2717 32.9266 59.2043 32.9682 59.078C33.1328 58.5796 33.6152 58.2037 34.1406 58.1678C34.258 58.1598 34.2849 58.1661 34.3221 58.1678C34.5444 58.1882 34.6102 58.213 34.7333 58.263C35.182 58.446 35.5116 58.8882 35.556 59.3739C35.5609 59.4274 35.5602 59.4411 35.5615 59.4949V65.5834L63.549 75.5175C64.7364 75.729 65.9788 76.025 67.1085 75.7954C68.1259 75.5886 68.5645 74.328 68.8814 73.2291C69.4823 71.1584 70.1872 69.1156 71.0158 67.1298C69.043 67.0072 67.1833 66.524 65.4739 65.5609C64.4741 64.9977 63.7536 64.1992 64.4616 63.3683C64.7105 63.0761 65.086 62.9096 65.4739 62.9008C68.637 64.5613 70.8715 65.0666 72.2198 64.4697ZM7.04783 63.4866C9.23117 63.5078 11.2785 65.2081 11.6555 67.3902C12.0138 69.4636 10.7917 71.707 8.84963 72.5295C6.73124 73.4269 3.99943 72.4982 2.87929 70.4375C1.93611 68.7024 2.24517 66.3784 3.61036 64.9464C4.49189 64.0218 5.74241 63.4816 7.04783 63.4866ZM7.00249 65.8868C5.44307 65.9018 4.16981 67.7854 4.98811 69.2913C5.65439 70.5172 7.54672 70.8634 8.59752 69.8727C9.36594 69.1482 9.53552 67.8712 8.97592 66.9754C8.56081 66.3111 7.80542 65.8836 7.00249 65.8868ZM34.2882 20.321C40.7063 20.3489 46.9718 24.1047 49.9584 29.9759C52.8656 35.6913 52.3497 43.0032 48.5164 48.2906C44.6695 53.597 37.7067 56.4936 31.1126 55.313C25.8693 54.3744 21.154 50.9226 18.6523 46.2179C15.2018 39.7289 16.2704 31.0812 21.6529 25.6008C24.9148 22.2794 29.522 20.3413 34.1745 20.321C34.2125 20.321 34.2503 20.321 34.2882 20.321ZM28.252 45.8153L24.9346 49.1326C28.175 51.7755 32.5368 53.0923 36.8155 52.3264C39.2867 51.8839 41.6043 50.7527 43.5316 49.1361L40.2172 45.8216C37.4894 47.8677 33.6723 48.4359 30.4379 47.0908C29.6552 46.7654 28.921 46.333 28.252 45.8153ZM23.0138 28.6182C21.4775 30.4685 20.3953 32.6971 19.9195 35.0574C19.2996 38.1318 19.6968 41.4058 21.0523 44.241C21.5768 45.3376 22.246 46.3547 23.0311 47.274L26.3798 43.9255C25.3614 42.5885 24.6697 41.0031 24.4363 39.3357C24.0751 36.7548 24.8086 34.0524 26.3677 31.9721L23.0138 28.6182ZM45.4467 28.6204L42.0941 31.9732C42.4656 32.4507 42.7924 32.9634 43.0662 33.5058C44.7189 36.7812 44.3424 40.9442 42.0969 43.9393L45.413 47.2553C47.1144 45.2281 48.2952 42.7457 48.6829 40.0423C49.2609 36.0109 48.0375 31.7666 45.4467 28.6204ZM34.1844 30.7241C30.8671 30.7563 27.7603 33.2992 27.1301 36.5856C26.6764 38.9507 27.4965 41.5222 29.2438 43.1878C31.251 45.101 34.3921 45.7209 37.0034 44.6346C39.3102 43.6751 41.045 41.4412 41.3919 38.9667C41.8204 35.9119 40.0633 32.6767 37.2449 31.3806C36.2876 30.9406 35.225 30.7211 34.1844 30.7241ZM69.9417 39.9419C71.0718 39.849 71.7104 38.1327 70.4936 37.4396C70.4561 37.4183 70.4184 37.3971 70.3808 37.3762C67.2022 35.6193 63.1053 35.6394 59.9178 37.4374C59.9178 37.4374 59.3986 37.746 59.257 38.2619C58.9862 39.2488 60.1517 40.3625 61.2293 39.7518C61.258 39.7355 61.2869 39.7195 61.3159 39.7035C63.7045 38.399 66.806 38.3932 69.2065 39.7679C69.2065 39.7679 69.6103 39.9516 69.9417 39.9419ZM34.2314 36.1411C35.2324 36.1411 36.0452 36.9538 36.0452 37.9548C36.0452 38.9559 35.2324 39.7686 34.2314 39.7686C33.2304 39.7686 32.4176 38.9559 32.4176 37.9548C32.4176 36.9538 33.2304 36.1411 34.2314 36.1411ZM47.9044 6.89966L44.1728 3.16788C36.28 2.29577 28.0838 2.98668 20.8065 6.44548C14.0731 9.64574 8.58513 15.2609 5.58944 22.1779C4.25672 25.255 3.40626 28.5386 2.99036 31.8638L2.98503 31.9082L6.20694 36.8121C6.27189 30.9996 7.9976 25.1984 11.2383 20.3403C16.691 12.1667 26.1874 6.94453 36.2328 6.89683C40.0256 6.89056 43.8184 6.89087 47.6112 6.89683C47.709 6.89731 47.8067 6.89809 47.9044 6.89966ZM43.5685 26.7366C41.011 24.6168 37.7171 23.3931 34.3728 23.3558C34.3099 23.3553 34.247 23.3551 34.1841 23.3551C30.8167 23.3699 27.4775 24.5917 24.8938 26.7361L28.2432 30.0856C29.9313 28.8065 32.0299 28.0847 34.1677 28.064C34.2101 28.0638 34.2526 28.0638 34.2951 28.064C36.416 28.0845 38.5023 28.839 40.1946 30.1105L43.5685 26.7366ZM77.1685 0.150859C79.4616 0.17298 81.5708 2.05824 81.8179 4.34858C82.0337 6.34963 80.8182 8.42519 78.9441 9.20506C76.4387 10.2475 73.167 8.66208 72.5453 5.89074C71.9411 3.19769 74.1005 0.197298 77.0778 0.151017C77.1079 0.15086 77.1382 0.150702 77.1685 0.150859ZM77.1231 2.55101C75.5449 2.56623 74.2721 4.52272 75.1436 6.01625C75.8416 7.21264 77.714 7.50695 78.7389 6.51765C79.9916 5.30839 79.2819 2.58396 77.1683 2.55117C77.1533 2.55101 77.1382 2.55101 77.1231 2.55101Z" fill="white"/>
</svg>
