<svg width="67" height="88" viewBox="0 0 67 88" fill="none" xmlns="http://www.w3.org/2000/svg">
<path d="M26.7122 57.0728C39.9355 57.0728 50.6552 46.3531 50.6552 33.1298C50.6552 19.9064 39.9355 9.18677 26.7122 9.18677C13.4888 9.18677 2.76917 19.9064 2.76917 33.1298C2.76917 46.3531 13.4888 57.0728 26.7122 57.0728Z" fill="#07F49E" fill-opacity="0.06"/>
<path d="M50.6504 84.6188C58.2559 84.6188 64.4214 78.4533 64.4214 70.8477C64.4214 63.2422 58.2559 57.0767 50.6504 57.0767C43.0448 57.0767 36.8793 63.2422 36.8793 70.8477C36.8793 78.4533 43.0448 84.6188 50.6504 84.6188Z" fill="#0B3866" fill-opacity="0.2"/>
<path fill-rule="evenodd" clip-rule="evenodd" d="M62.7127 79.1053C64.5747 79.1234 66.3162 80.5732 66.636 82.4293C67.0233 84.6767 65.187 87.1043 62.7127 87.1199C60.7952 87.132 58.9878 85.5903 58.7185 83.672C58.4065 81.45 60.2617 79.1447 62.635 79.1056C62.6608 79.1053 62.6868 79.1052 62.7127 79.1053ZM14.4647 46.6939C13.9087 46.7028 13.402 47.1529 13.346 47.7275C13.2891 48.3779 13.2597 49.0297 13.2587 49.682C13.2587 49.682 13.2466 49.8259 13.1672 49.9411C12.925 50.293 12.4463 50.3149 11.996 50.4602C8.48187 51.5947 5.88767 55.3157 6.43729 59.1321C6.9069 62.3932 9.52555 65.3068 12.7854 65.9931C12.7854 65.9931 13.0808 66.0432 13.1782 66.1944C13.2718 66.3398 13.3362 66.4949 13.3858 66.9297C13.8611 70.9485 15.7181 74.8151 18.5754 77.7146C20.842 80.0058 23.1255 82.2782 25.4059 84.5454C26.8976 86.0019 28.9166 86.8398 31.0045 86.8651C33.5607 86.872 36.1195 86.8724 38.6777 86.8664L39.1881 86.8651C41.2638 86.8398 43.2982 85.998 44.7867 84.5454C46.4994 82.8433 48.2107 81.137 49.9163 79.4255C51.096 78.2416 52.3104 77.0864 53.3008 75.7454C55.2604 73.0924 56.5028 69.9141 56.8391 66.6309C56.8391 66.6309 56.8582 66.3224 57.0017 66.2084C57.1906 66.0584 57.2391 66.0311 57.5323 65.9656C60.6 65.2658 63.1773 62.6205 63.7127 59.5207C64.2279 56.5372 62.9037 53.3139 60.4273 51.5678C59.534 50.9379 58.512 50.4909 57.444 50.2607C57.444 50.2607 57.018 50.1354 56.9429 49.7843C56.8878 49.5267 56.9342 49.2652 56.9274 48.9767C56.9075 48.2718 56.9769 47.4695 56.5061 47.0268C56.248 46.7842 56.0503 46.7383 55.6949 46.7406C55.2696 46.7433 54.6387 47.0442 54.6352 48.0266C54.6337 48.459 54.6536 48.905 54.6586 49.3378L54.659 49.3842C54.6949 54.5577 54.705 59.7121 54.6586 64.9306C54.6082 69.0596 52.9399 73.0981 50.0458 76.0677C47.7718 78.3866 45.4789 80.6463 43.1888 82.9258C42.1432 83.9491 40.7021 84.5534 39.2452 84.5894L39.1745 84.5905C36.4615 84.5977 33.7382 84.5977 31.0181 84.5905C29.5498 84.5718 28.1001 83.9863 27.0292 82.9523C24.7124 80.6844 22.4226 78.392 20.1471 76.0696C17.263 73.1146 15.584 69.0597 15.534 64.933C15.4827 59.7364 15.4984 54.5381 15.5338 49.3836C15.5414 48.5488 15.7995 47.6575 15.3551 47.1098C15.1917 46.9082 14.9576 46.7679 14.7005 46.7144C14.7005 46.7144 14.5629 46.6936 14.4647 46.6939ZM62.675 81.2787C61.4732 81.2904 60.4746 82.7101 61.0239 83.8865C61.5521 85.0172 63.3642 85.3081 64.1767 84.1816C64.9352 83.1298 64.1972 81.3106 62.7229 81.2791C62.7069 81.2788 62.6908 81.2787 62.675 81.2787ZM32.7451 73.3393C31.977 73.3531 31.3108 74.4519 32.0449 75.0544C32.3091 75.2712 32.6445 75.3865 32.976 75.4976C34.4824 76.0025 36.1622 75.9201 37.6418 75.3317C38.2756 75.0798 38.7406 74.3401 38.2679 73.7513C37.9787 73.3911 37.352 73.3086 36.9309 73.478C36.0994 73.8089 35.2128 73.9658 34.3028 73.7469C34.0129 73.677 33.7301 73.5826 33.4455 73.494C33.2158 73.4229 32.9862 73.3384 32.7451 73.3393ZM57.5379 52.6939C57.8176 52.7015 57.8278 52.7569 57.9327 52.7995C60.212 53.7241 61.8213 56.198 61.5058 58.7312C61.2425 60.8448 59.7751 62.7793 57.7521 63.5267C57.7521 63.5267 57.0612 63.6085 56.9414 63.0491L56.934 62.9851V53.2715C56.9425 53.185 56.9505 53.162 56.9622 53.1213C57.0335 52.8743 57.2603 52.6927 57.5379 52.6939ZM12.6734 52.6935C12.9348 52.7 12.9849 52.7645 13.0834 52.8656C13.228 53.0138 13.2587 53.2698 13.2587 53.2698V62.9835C13.2587 62.9835 13.2175 63.3083 12.9557 63.4331C12.4494 63.6745 11.8432 63.3077 11.3109 62.9703C9.71342 61.9572 8.6366 60.1317 8.65113 58.1969C8.66838 55.8821 10.1652 53.6278 12.3067 52.7792C12.5482 52.6835 12.5217 52.6919 12.6734 52.6935ZM48.3305 56.2736C48.1378 56.2783 47.862 56.3693 47.862 56.3693C47.8182 56.3891 47.7742 56.4085 47.7302 56.4278C45.332 57.4647 42.5292 57.5302 40.1057 56.4766C39.9033 56.3886 39.6976 56.2985 39.4799 56.2969C38.9361 56.2924 38.3695 56.7596 38.4718 57.3582C38.5869 58.0323 39.3296 58.3371 40.1018 58.6077C42.743 59.5336 45.7333 59.4298 48.3278 58.3328C48.843 58.115 49.3903 57.7158 49.2257 57.08C49.1205 56.674 48.7771 56.3238 48.3593 56.276C48.3498 56.275 48.3401 56.2736 48.3305 56.2736ZM30.7817 56.2736C30.5993 56.2765 30.359 56.3527 30.3307 56.3653C28.038 57.3903 25.362 57.6285 22.9932 56.6493C22.4046 56.4023 21.7247 56.0797 21.2468 56.5256C20.7008 57.035 20.9771 57.9574 21.8714 58.3395C24.7165 59.5552 28.023 59.5196 30.8765 58.2951C31.2591 58.1309 31.6356 57.8933 31.7056 57.4873C31.8031 56.9222 31.35 56.316 30.7938 56.2736C30.7899 56.2735 30.7858 56.2736 30.7817 56.2736ZM4.02853 30.3265C5.89053 30.3445 7.63204 31.7945 7.95181 33.6505C8.3391 35.8979 6.50277 38.3255 4.02853 38.3411C2.11097 38.3531 0.303577 36.8116 0.0343359 34.8932C-0.277696 32.6712 1.57751 30.3659 3.95083 30.3267C3.97664 30.3265 4.00258 30.3264 4.02853 30.3265ZM19.2932 38.4966C19.5976 38.4498 19.9072 38.5384 20.141 38.739C20.3748 38.9395 20.5093 39.2323 20.5093 39.5402C20.5093 39.5606 20.5093 39.581 20.5093 39.6012C20.5093 40.1216 20.13 40.5645 19.6157 40.6445C19.3398 40.6874 19.064 40.732 18.7887 40.7786C17.2268 41.0428 15.6165 41.2933 14.2369 41.9976C14.2369 41.9976 14.1573 41.979 14.2688 42.0359C15.3543 42.5778 16.5702 42.8187 17.7799 43.0553C23.1679 44.1093 28.7116 44.3108 34.2412 44.3431C40.1525 44.3779 46.0514 44.2145 51.9179 43.1482C53.3113 42.895 54.745 42.6364 55.9538 42.0198C55.9538 42.0198 56.0337 42.0382 55.9219 41.9812C55.0889 41.5654 54.1685 41.3437 53.2533 41.1383C52.3668 40.9393 51.4736 40.7727 50.5751 40.6319C50.061 40.5519 49.6818 40.109 49.6818 39.5887C49.6816 39.5727 49.6816 39.5565 49.6816 39.5404C49.6816 39.2324 49.8161 38.9399 50.0496 38.7393C50.2832 38.5387 50.5927 38.4501 50.8971 38.4966C50.9669 38.5073 51.0369 38.518 51.1067 38.5289C53.11 38.8404 55.1692 39.1516 56.9485 40.065C58.0314 40.6209 58.9591 41.7935 58.1493 42.9813C57.3848 44.1027 55.8833 44.4602 54.4858 44.8184C51.8848 45.4851 49.2006 45.7955 46.5117 46.0399C38.2398 46.7919 29.8755 46.7778 21.6455 45.8314C18.7293 45.4961 15.6886 45.2932 13.1224 43.8886C12.4149 43.5014 11.7119 42.8659 11.7307 41.9748C11.7519 40.9648 12.7837 40.2349 13.7495 39.8298C15.4023 39.1364 17.1978 38.8257 18.9885 38.5438C19.09 38.5278 19.1916 38.512 19.2932 38.4966ZM3.99076 32.4999C2.78896 32.5116 1.79038 33.9313 2.33973 35.1077C2.86789 36.2384 4.68003 36.5293 5.49251 35.4029C6.25106 34.351 5.51302 32.5318 4.03872 32.5003C4.02269 32.5 4.00666 32.4999 3.99076 32.4999ZM23.1279 33.1854C22.7086 33.1844 22.2379 33.1835 22.0147 33.1824C17.1427 33.1447 12.3994 30.1853 10.2768 25.6785C8.57384 22.0628 8.66281 17.6508 10.505 14.107C12.68 9.92333 17.1921 7.10133 22.0147 7.06411C25.129 7.04944 28.2434 7.04332 31.3578 7.04224L31.3577 0H38.8291V7.04726C41.9296 7.05188 45.0299 7.05854 48.1302 7.06384C51.3425 7.07905 54.5244 8.31332 56.8978 10.4829C60.9716 14.2063 62.3404 20.592 59.8763 25.7496C57.7731 30.152 53.0998 33.1591 48.1302 33.1825L47.0583 33.1839C47.056 34.21 47.0527 35.236 47.0488 36.2622C47.0165 38.8 44.7842 41.1971 42.0924 41.2505C37.4475 41.3118 32.7966 41.2641 28.1408 41.2509C25.562 41.2165 23.2035 38.93 23.1521 36.2937C23.1396 35.2581 23.132 34.222 23.1279 33.1854ZM36.8448 19.5989C33.9456 19.6 31.0533 19.5653 28.1426 19.6057C26.7244 19.6337 25.4309 20.8845 25.4034 22.3406C25.3428 26.9609 25.3485 31.6645 25.4034 36.263C25.4318 37.6864 26.6829 38.9621 28.121 38.9989C32.7505 39.0867 37.4539 39.0584 42.0608 38.9992C43.4726 38.9725 44.7698 37.718 44.7971 36.2636C44.8578 31.6319 44.8151 26.9951 44.7972 22.3584C44.7803 20.9443 43.5446 19.6348 42.0617 19.6055C40.3168 19.5827 38.5813 19.5988 36.8448 19.5989ZM32.1489 30.5923V33.3037C32.1262 33.7858 31.8106 34.251 31.3385 34.3811C30.6756 34.5638 29.9274 34.0539 29.8974 33.3092V27.7026C29.9085 27.4099 30.0251 27.1283 30.2237 26.9151L32.6289 24.5099C32.843 24.3109 33.1249 24.1942 33.4165 24.1837H36.3035C36.3251 24.1843 36.3467 24.1849 36.3681 24.1856C36.9332 24.2405 37.4033 24.7036 37.4251 25.3044V33.309C37.3859 34.3274 35.5896 34.8863 35.2162 33.6255C35.1858 33.5225 35.1772 33.4152 35.1737 33.3083V30.5923H32.1489ZM39.246 24.1856C39.8077 24.2397 40.2797 24.7029 40.3031 25.3042V33.3086C40.288 33.7293 40.1262 34.1166 39.6233 34.3374C38.971 34.6109 38.0966 34.1163 38.0535 33.3709C38.0523 33.3496 38.052 33.3281 38.0516 33.3068V25.3046C38.073 24.7154 38.548 24.2074 39.1763 24.1835C39.1995 24.1843 39.2227 24.1849 39.246 24.1856ZM47.0618 31.0121C47.4513 31.0112 47.9145 31.0101 48.1586 31.0089C52.207 30.9776 56.1742 28.5092 57.9437 24.7524C59.3583 21.7491 59.302 18.0883 57.7534 15.1095C55.9342 11.6101 52.1088 9.25621 48.1232 9.23732C45.0251 9.23203 41.9271 9.23053 38.8291 9.2308V10.8014C38.8272 11.3358 38.7025 11.8619 38.4791 12.3426C41.7233 12.3453 44.9677 12.3517 48.2119 12.3619C51.4724 12.3927 54.5847 14.7276 55.4814 17.8871C56.4551 21.3178 54.7078 25.3599 51.294 26.9036C50.328 27.3404 49.2668 27.5659 48.2119 27.576L47.0618 27.5783C47.0631 28.7229 47.0629 29.8675 47.0618 31.0121ZM23.1319 27.5782L21.975 27.576C18.1682 27.54 14.5776 24.3361 14.4224 20.2623C14.301 17.0734 16.4019 13.9247 19.4083 12.8236C20.2288 12.5231 21.1022 12.3701 21.975 12.3619C25.215 12.3517 28.455 12.3453 31.695 12.3426C31.6169 12.1767 31.5513 12.003 31.4998 11.8217C31.4624 11.6904 31.4335 11.5575 31.4129 11.424C31.3784 11.2261 31.3597 11.025 31.3578 10.823V9.23366C28.2718 9.23542 25.1858 9.23732 22.0999 9.23732C19.4083 9.24194 16.7464 10.2674 14.7554 12.0872C11.3738 15.1779 10.2022 20.4804 12.2718 24.8127C14.0229 28.4787 17.9076 30.9895 22.0636 31.009L23.1241 31.0102C23.1244 29.8666 23.1277 28.7225 23.1319 27.5782ZM35.1737 26.4352H33.8878L32.1489 28.174V28.3362C33.1377 28.3291 34.125 28.3184 35.1124 28.3238L35.1737 28.3242V26.4352ZM47.0583 25.4048L48.1982 25.4025C50.5046 25.3806 52.6923 23.756 53.3622 21.5533C53.9155 19.7345 53.4284 17.6335 52.1187 16.2438C51.1138 15.1773 49.6848 14.5493 48.1982 14.5353C43.8668 14.5216 39.5356 14.5216 35.2042 14.5249C35.1534 14.526 35.1028 14.526 35.0519 14.525C30.7099 14.5284 26.3678 14.5352 22.0257 14.5352C19.2717 14.5439 16.724 16.8406 16.5958 19.7233C16.4674 22.6079 18.9317 25.3736 21.9887 25.4025L23.1407 25.4047C23.145 24.3844 23.1493 23.3639 23.1517 22.3433C23.1844 19.7669 25.4375 17.408 28.1085 17.3542C30.7202 17.3209 33.3463 17.3424 35.97 17.3429C37.9999 17.3442 40.0298 17.3478 42.0597 17.3538C44.6028 17.3874 46.9961 19.5906 47.048 22.2867C47.048 22.2867 47.0525 23.2749 47.0549 24.0833C47.0563 24.5239 47.0574 24.9644 47.0583 25.4048ZM35.482 12.3006C36.4297 12.0027 37.0374 10.6794 36.287 9.79238C35.9929 9.44462 35.5443 9.23556 35.0832 9.23732C34.4825 9.24262 33.9026 9.6238 33.6611 10.1752C33.2835 11.0367 33.9038 12.1756 34.8539 12.3412H35.0934H35.2976C35.3598 12.3314 35.4213 12.3178 35.482 12.3006ZM36.6556 2.17349H33.5312C33.5312 2.93625 33.527 6.27962 33.5233 7.04224C34.5674 7.04251 35.6115 7.04332 36.6556 7.04441V2.17349Z" fill="white"/>
</svg>
